<?xml version="1.0" encoding="UTF-8" standalone="no"?>
<svg
   xmlns:dc="http://purl.org/dc/elements/1.1/"
   xmlns:cc="http://creativecommons.org/ns#"
   xmlns:rdf="http://www.w3.org/1999/02/22-rdf-syntax-ns#"
   xmlns:svg="http://www.w3.org/2000/svg"
   xmlns="http://www.w3.org/2000/svg"
   xmlns:sodipodi="http://sodipodi.sourceforge.net/DTD/sodipodi-0.dtd"
   xmlns:inkscape="http://www.inkscape.org/namespaces/inkscape"
   viewBox="0 0 2705.2834 1691.4337"
   height="1691.4337"
   width="2705.2834"
   xml:space="preserve"
   id="svg2"
   version="1.1"
   sodipodi:docname="casette.svg"
   inkscape:version="1.0.1 (3bc2e813f5, 2020-09-07)"><sodipodi:namedview
     pagecolor="#ffffff"
     bordercolor="#666666"
     borderopacity="1"
     objecttolerance="10"
     gridtolerance="10"
     guidetolerance="10"
     inkscape:pageopacity="0"
     inkscape:pageshadow="2"
     inkscape:window-width="1920"
     inkscape:window-height="1017"
     id="namedview1061"
     showgrid="false"
     fit-margin-top="0"
     fit-margin-left="0"
     fit-margin-right="0"
     fit-margin-bottom="0"
     inkscape:zoom="0.45720002"
     inkscape:cx="1245.3511"
     inkscape:cy="723.77228"
     inkscape:window-x="-8"
     inkscape:window-y="-8"
     inkscape:window-maximized="1"
     inkscape:current-layer="g214"
     inkscape:document-rotation="0" /><metadata
     id="metadata8"><rdf:RDF><cc:Work
         rdf:about=""><dc:format>image/svg+xml</dc:format><dc:type
           rdf:resource="http://purl.org/dc/dcmitype/StillImage" /><dc:title /></cc:Work></rdf:RDF></metadata><defs
     id="defs6" /><g
     transform="matrix(1.3333333,0,0,-1.3333333,-2060.8799,2943.0322)"
     id="g10"><g
       transform="scale(0.1)"
       id="g12"><g
         transform="scale(3.06748)"
         id="g14" /><g
         transform="scale(2.37858)"
         id="g18" /><g
         transform="scale(2.19302)"
         id="g22"><path
           id="path24"
           style="fill:#281f25;fill-opacity:1;fill-rule:nonzero;stroke:none"
           d="m 15943.7,4541.4 346.7,352.53 c 6.2,6.24 9.6,14.68 9.6,23.48 V 6320.5 c 0,8.75 -3.4,17.19 -9.5,23.43 l -346.7,353.94 c -21,21.44 -57.4,6.57 -57.4,-23.43 V 4564.93 c 0,-30.01 36.3,-44.92 57.3,-23.53" /></g><g
         transform="scale(1.00391)"
         id="g26"><path
           id="path28"
           style="fill:#281f25;fill-opacity:1;fill-rule:nonzero;stroke:none"
           d="m 16174.7,9920.57 -757.2,770.13 c -13.5,13.6 -21.1,32 -21.1,51.3 v 3065 c 0,19.1 7.5,37.5 21,51.2 l 757.2,773.1 c 45.8,46.8 125.4,14.4 125.4,-51.2 V 9971.97 c 0,-65.55 -79.4,-98.12 -125.3,-51.4" /></g><g
         transform="scale(2.17912)"
         id="g30"><path
           id="path32"
           style="fill:#30252a;fill-opacity:1;fill-rule:nonzero;stroke:none"
           d="M 16078.6,4307.76 H 7413.51 c -121.79,0 -221.42,99.62 -221.42,221.42 v 5378.61 c 0,121.81 99.63,221.41 221.42,221.41 h 8665.09 c 121.7,0 221.4,-99.6 221.4,-221.41 V 4529.18 c 0,-121.8 -99.7,-221.42 -221.4,-221.42" /></g><g
         transform="scale(1.98737)"
         id="g34"><path
           id="path36"
           style="fill:#281f25;fill-opacity:1;fill-rule:nonzero;stroke:none"
           d="M 16300,4723.37 H 9464.15 l 284.09,1453.07 c 18.22,93.09 99.83,160.21 194.68,160.06 l 5902.38,-8.75 c 95.7,-0.15 177.6,-68.74 194.6,-162.93 L 16300,4723.37" /></g><g
         transform="scale(1.96291)"
         id="g38"><path
           id="path40"
           style="fill:#352a2f;fill-opacity:1;fill-rule:nonzero;stroke:none"
           d="M 16300,4782.18 H 9786.78 l 23.23,118.7 17.62,90.17 25.37,129.76 17.63,90.17 25.37,129.75 17.58,90.18 25.42,129.75 17.58,90.17 25.42,129.81 17.67,90.17 25.33,129.71 13.4,68.72 c 1.4,7.34 3.3,14.52 5.6,21.5 24.8,77.95 97.6,132.1 181.1,131.95 l 5658.1,-8.36 c 80.4,-0.2 150.5,-50.54 177.6,-123.59 4,-10.44 6.9,-21.35 9,-32.6 l 10.4,-57.62 23.4,-129.71 16.2,-90.17 23.5,-129.81 16.2,-90.17 23.4,-129.75 16.3,-90.18 23.4,-129.75 16.3,-90.17 23.4,-129.76 16.3,-90.17 21.4,-118.7" /></g><g
         transform="scale(1.93644)"
         id="g42"><path
           id="path44"
           style="fill:#493c43;fill-opacity:1;fill-rule:nonzero;stroke:none"
           d="m 16300,6082.55 h -6138 l 13.7,69.66 c 1.4,7.44 3.3,14.72 5.6,21.8 h 6099.1 c 4,-10.59 7,-21.64 9.1,-33.05 l 10.5,-58.41" /></g><g
         transform="scale(1.94121)"
         id="g46"><path
           id="path48"
           style="fill:#493c43;fill-opacity:1;fill-rule:nonzero;stroke:none"
           d="m 16300,5845.26 h -6206.4 l 17.9,91.18 h 6172.1 l 16.4,-91.18" /></g><g
         transform="scale(1.946)"
         id="g50"><path
           id="path52"
           style="fill:#493c43;fill-opacity:1;fill-rule:nonzero;stroke:none"
           d="m 16300,5608.99 h -6274.6 l 17.7,90.96 h 6240.5 l 16.4,-90.96" /></g><g
         transform="scale(1.95078)"
         id="g54"><path
           id="path56"
           style="fill:#493c43;fill-opacity:1;fill-rule:nonzero;stroke:none"
           d="M 16300,5373.96 H 9957.56 l 17.69,90.73 h 6308.35 l 16.4,-90.73" /></g><g
         transform="scale(1.95556)"
         id="g58"><path
           id="path60"
           style="fill:#493c43;fill-opacity:1;fill-rule:nonzero;stroke:none"
           d="M 16300,5140.07 H 9890.07 l 17.69,90.51 h 6375.84 l 16.4,-90.51" /></g><g
         transform="scale(1.96034)"
         id="g62"><path
           id="path64"
           style="fill:#493c43;fill-opacity:1;fill-rule:nonzero;stroke:none"
           d="M 16300,4907.32 H 9822.9 l 17.65,90.29 h 6443.15 l 16.3,-90.29" /></g><g
         transform="scale(1.59542)"
         id="g66"><path
           id="path68"
           style="fill:#191717;fill-opacity:1;fill-rule:nonzero;stroke:none"
           d="m 16300,7308.18 c 0,-143.6 -116.4,-260.06 -260.1,-260.06 -143.6,0 -260,116.46 -260,260.06 0,143.6 116.4,260.06 260,260.06 143.7,0 260.1,-116.46 260.1,-260.06" /></g><g
         transform="scale(1.5922)"
         id="g70"><path
           id="path72"
           style="fill:#352a2f;fill-opacity:1;fill-rule:nonzero;stroke:none"
           d="m 16300,7322.97 c 0,-125.68 -101.9,-227.55 -227.6,-227.55 -125.7,0 -227.6,101.87 -227.6,227.55 0,125.67 101.9,227.54 227.6,227.54 125.7,0 227.6,-101.87 227.6,-227.54" /></g><g
         transform="scale(1.5835)"
         id="g74"><path
           id="path76"
           style="fill:#171515;fill-opacity:1;fill-rule:nonzero;stroke:none"
           d="m 16295.4,7404.72 h -86.2 c -2.6,0 -4.7,2.15 -4.7,4.68 v 86.2 c 0,2.59 -2.1,4.67 -4.7,4.67 h -78.3 c -2.6,0 -4.7,-2.08 -4.7,-4.67 v -86.2 c 0,-2.53 -2.1,-4.68 -4.7,-4.68 h -86.2 c -2.5,0 -4.6,-2.08 -4.6,-4.67 v -78.31 c 0,-2.59 2.1,-4.67 4.6,-4.67 h 86.2 c 2.6,0 4.7,-2.09 4.7,-4.67 v -86.21 c 0,-2.52 2.1,-4.67 4.7,-4.67 h 78.3 c 2.6,0 4.7,2.15 4.7,4.67 v 86.21 c 0,2.58 2.1,4.67 4.7,4.67 h 86.2 c 2.5,0 4.6,2.08 4.6,4.67 v 78.31 c 0,2.59 -2.1,4.67 -4.6,4.67" /></g><g
         transform="scale(2.17029)"
         id="g78"><path
           id="path80"
           style="fill:#191717;fill-opacity:1;fill-rule:nonzero;stroke:none"
           d="m 16300,4609.89 c 0,-105.56 -85.6,-191.17 -191.1,-191.17 -105.6,0 -191.2,85.61 -191.2,191.17 0,105.57 85.6,191.18 191.2,191.18 105.5,0 191.1,-85.61 191.1,-191.18" /></g><g
         transform="scale(2.16707)"
         id="g82"><path
           id="path84"
           style="fill:#352a2f;fill-opacity:1;fill-rule:nonzero;stroke:none"
           d="m 16300,4616.75 c 0,-92.34 -74.8,-167.19 -167.2,-167.19 -92.3,0 -167.2,74.85 -167.2,167.19 0,92.33 74.9,167.18 167.2,167.18 92.4,0 167.2,-74.85 167.2,-167.18" /></g><g
         transform="scale(2.15838)"
         id="g86"><path
           id="path88"
           style="fill:#171515;fill-opacity:1;fill-rule:nonzero;stroke:none"
           d="m 16296.6,4665.81 h -63.3 c -1.9,0 -3.4,1.53 -3.4,3.43 v 63.24 c 0,1.9 -1.5,3.43 -3.4,3.43 h -57.5 c -1.9,0 -3.4,-1.53 -3.4,-3.43 v -63.24 c 0,-1.9 -1.6,-3.43 -3.4,-3.43 h -63.3 c -1.9,0 -3.4,-1.52 -3.4,-3.43 v -57.44 c 0,-1.9 1.5,-3.43 3.4,-3.43 h 63.3 c 1.8,0 3.4,-1.53 3.4,-3.43 v -63.24 c 0,-1.9 1.5,-3.43 3.4,-3.43 h 57.5 c 1.9,0 3.4,1.53 3.4,3.43 v 63.24 c 0,1.9 1.5,3.43 3.4,3.43 h 63.3 c 1.9,0 3.4,1.53 3.4,3.43 v 57.44 c 0,1.91 -1.5,3.43 -3.4,3.43" /></g><g
         transform="scale(1.02094)"
         id="g90"><path
           id="path92"
           style="fill:#191717;fill-opacity:1;fill-rule:nonzero;stroke:none"
           d="m 16300,9799.55 c 0,-224.4 -182,-406.39 -406.4,-406.39 -224.4,0 -406.4,181.99 -406.4,406.39 0,224.45 182,406.35 406.4,406.35 224.4,0 406.4,-181.9 406.4,-406.35" /></g><g
         transform="scale(1.01772)"
         id="g94"><path
           id="path96"
           style="fill:#352a2f;fill-opacity:1;fill-rule:nonzero;stroke:none"
           d="m 16300,9830.62 c 0,-196.61 -159.4,-355.99 -356,-355.99 -196.6,0 -356,159.38 -356,355.99 0,196.58 159.4,355.98 356,355.98 196.6,0 356,-159.4 356,-355.98" /></g><g
         transform="scale(1.00903)"
         id="g98"><path
           id="path100"
           style="fill:#171515;fill-opacity:1;fill-rule:nonzero;stroke:none"
           d="m 16292.7,9980.47 h -135.3 c -4.1,0 -7.3,3.27 -7.3,7.33 v 135.3 c 0,4 -3.3,7.3 -7.4,7.3 h -122.9 c -4,0 -7.3,-3.3 -7.3,-7.3 v -135.3 c 0,-4.06 -3.3,-7.33 -7.3,-7.33 h -135.3 c -4.1,0 -7.3,-3.27 -7.3,-7.33 v -122.89 c 0,-4.07 3.2,-7.34 7.3,-7.34 h 135.3 c 4,0 7.3,-3.27 7.3,-7.33 V 9700.3 c 0,-4.06 3.3,-7.33 7.3,-7.33 h 122.9 c 4.1,0 7.4,3.27 7.4,7.33 v 135.28 c 0,4.06 3.2,7.33 7.3,7.33 h 135.3 c 4,0 7.3,3.27 7.3,7.34 v 122.89 c 0,4.06 -3.3,7.33 -7.3,7.33" /></g><g
         transform="scale(2.17029)"
         id="g102"><path
           id="path104"
           style="fill:#191717;fill-opacity:1;fill-rule:nonzero;stroke:none"
           d="m 16300,9885.45 c 0,-105.57 -85.6,-191.15 -191.1,-191.15 -105.6,0 -191.2,85.58 -191.2,191.15 0,105.58 85.6,191.15 191.2,191.15 105.5,0 191.1,-85.57 191.1,-191.15" /></g><g
         transform="scale(2.16707)"
         id="g106"><path
           id="path108"
           style="fill:#352a2f;fill-opacity:1;fill-rule:nonzero;stroke:none"
           d="m 16300,9900.14 c 0,-92.33 -74.8,-167.18 -167.2,-167.18 -92.3,0 -167.2,74.85 -167.2,167.18 0,92.35 74.9,167.16 167.2,167.16 92.4,0 167.2,-74.81 167.2,-167.16" /></g><g
         transform="scale(2.15838)"
         id="g110"><path
           id="path112"
           style="fill:#171515;fill-opacity:1;fill-rule:nonzero;stroke:none"
           d="m 16296.6,9970.5 h -63.3 c -1.9,0 -3.4,1.53 -3.4,3.42 v 63.28 c 0,1.9 -1.5,3.4 -3.4,3.4 h -57.5 c -1.9,0 -3.4,-1.5 -3.4,-3.4 v -63.28 c 0,-1.89 -1.6,-3.42 -3.4,-3.42 h -63.3 c -1.9,0 -3.4,-1.54 -3.4,-3.43 v -57.47 c 0,-1.89 1.5,-3.43 3.4,-3.43 h 63.3 c 1.8,0 3.4,-1.54 3.4,-3.42 v -63.24 c 0,-1.89 1.5,-3.43 3.4,-3.43 h 57.5 c 1.9,0 3.4,1.54 3.4,3.43 v 63.24 c 0,1.88 1.5,3.42 3.4,3.42 h 63.3 c 1.9,0 3.4,1.54 3.4,3.43 v 57.47 c 0,1.89 -1.5,3.43 -3.4,3.43" /></g><g
         transform="scale(1.34167)"
         id="g114"><path
           id="path116"
           style="fill:#191717;fill-opacity:1;fill-rule:nonzero;stroke:none"
           d="m 12403.5,15990.8 c 0,-170.8 -138.4,-309.2 -309.2,-309.2 -170.8,0 -309.2,138.4 -309.2,309.2 0,170.8 138.4,309.2 309.2,309.2 170.8,0 309.2,-138.4 309.2,-309.2" /></g><g
         transform="scale(1.33844)"
         id="g118"><path
           id="path120"
           style="fill:#352a2f;fill-opacity:1;fill-rule:nonzero;stroke:none"
           d="m 12394.1,16029.3 c 0,-149.5 -121.2,-270.7 -270.7,-270.7 -149.5,0 -270.7,121.2 -270.7,270.7 0,149.5 121.2,270.7 270.7,270.7 149.5,0 270.7,-121.2 270.7,-270.7" /></g><g
         transform="scale(1.32953)"
         id="g122"><path
           id="path124"
           style="fill:#171515;fill-opacity:1;fill-rule:nonzero;stroke:none"
           d="m 12365.1,16186.2 h -102.7 c -3.1,0 -5.5,2.5 -5.5,5.6 v 102.6 c 0,3.1 -2.5,5.6 -5.6,5.6 h -93.3 c -3.1,0 -5.5,-2.5 -5.5,-5.6 v -102.6 c 0,-3.1 -2.5,-5.6 -5.6,-5.6 h -102.7 c -3.1,0 -5.5,-2.5 -5.5,-5.6 v -93.2 c 0,-3.1 2.4,-5.6 5.5,-5.6 h 102.7 c 3.1,0 5.6,-2.5 5.6,-5.6 v -102.6 c 0,-3.1 2.4,-5.6 5.5,-5.6 h 93.3 c 3.1,0 5.6,2.5 5.6,5.6 v 102.6 c 0,3.1 2.4,5.6 5.5,5.6 h 102.7 c 3.1,0 5.6,2.5 5.6,5.6 v 93.2 c 0,3.1 -2.5,5.6 -5.6,5.6" /></g><g
         transform="scale(1.31183)"
         id="g126"><path
           id="path128"
           style="fill:#262024;fill-opacity:1;fill-rule:nonzero;stroke:none"
           d="m 16300,7772.74 c 0,-156.5 -115.3,-286.09 -265.7,-308.57 -15.1,-2.29 -30.5,-3.44 -46.3,-3.44 -172.4,0 -312,139.73 -312,312.01 0,172.28 139.6,312.09 312,312.09 15.8,0 31.2,-1.23 46.3,-3.51 150.4,-22.42 265.7,-152.01 265.7,-308.58" /></g><g
         transform="scale(1.31183)"
         id="g130"><path
           id="path132"
           style="fill:#ffffff;fill-opacity:1;fill-rule:nonzero;stroke:none"
           d="m 16300,7772.74 c 0,-156.5 -115.3,-286.09 -265.7,-308.57 -150.3,22.33 -265.5,152.07 -265.5,308.57 0,156.57 115.2,286.24 265.5,308.58 150.4,-22.42 265.7,-152.01 265.7,-308.58" /></g><g
         transform="scale(1.8806)"
         id="g134"><path
           id="path136"
           style="fill:#262024;fill-opacity:1;fill-rule:nonzero;stroke:none"
           d="m 15864.7,5421.95 c 0,109.22 80.5,199.62 185.3,215.25 10.5,1.6 21.3,2.45 32.3,2.45 120.3,0 217.7,-97.52 217.7,-217.7 0,-120.17 -97.4,-217.64 -217.7,-217.64 -11,0 -21.8,0.8 -32.3,2.39 -104.8,15.69 -185.3,106.09 -185.3,215.25" /></g><g
         transform="scale(1.87313)"
         id="g138"><path
           id="path140"
           style="fill:#ffffff;fill-opacity:1;fill-rule:nonzero;stroke:none"
           d="m 15927.9,5443.57 c 0,109.65 80.8,200.41 186,216.11 105.4,-15.65 186.1,-106.46 186.1,-216.11 0,-109.61 -80.7,-200.47 -186.1,-216.11 -105.2,15.75 -186,106.5 -186,216.11" /></g><g
         transform="scale(1.42314)"
         id="g142"><path
           id="path144"
           style="fill:#262025;fill-opacity:1;fill-rule:nonzero;stroke:none"
           d="m 16300,7403.2 v -279.8 c 0,-10.89 -1.9,-21.36 -5.4,-31.06 -12.8,-36.19 -47.5,-62.26 -87.9,-62.26 h -357.6 c -51.3,0 -93.2,41.95 -93.2,93.32 v 279.8 c 0,40.48 26,75.12 62.2,87.91 9.7,3.51 20.1,5.41 31,5.41 h 357.6 c 51.3,0 93.3,-42.02 93.3,-93.32" /></g><g
         transform="scale(1.42314)"
         id="g146"><path
           id="path148"
           style="fill:#ffffff;fill-opacity:1;fill-rule:nonzero;stroke:none"
           d="m 16300,7403.2 v -279.8 c 0,-10.89 -1.9,-21.36 -5.4,-31.06 -9.7,-3.44 -20.1,-5.27 -30.9,-5.27 h -357.6 c -51.3,0 -93.3,41.95 -93.3,93.31 v 279.81 c 0,10.82 1.9,21.22 5.3,30.92 9.7,3.51 20.1,5.41 31,5.41 h 357.6 c 51.3,0 93.3,-42.02 93.3,-93.32" /></g><g
         transform="scale(1.76566)"
         id="g150"><path
           id="path152"
           style="fill:#262025;fill-opacity:1;fill-rule:nonzero;stroke:none"
           d="m 15861.4,5967.05 v -225.52 c 0,-8.78 1.5,-17.22 4.4,-25.03 10.3,-29.17 38.3,-50.19 70.8,-50.19 h 288.2 c 41.4,0 75.2,33.82 75.2,75.22 v 225.52 c 0,32.63 -21,60.54 -50.2,70.85 -7.8,2.84 -16.2,4.36 -25,4.36 h -288.2 c -41.3,0 -75.2,-33.86 -75.2,-75.21" /></g><g
         transform="scale(1.76069)"
         id="g154"><path
           id="path156"
           style="fill:#ffffff;fill-opacity:1;fill-rule:nonzero;stroke:none"
           d="m 15906.2,5983.91 v -226.16 c 0,-8.8 1.6,-17.26 4.4,-25.1 7.8,-2.78 16.2,-4.26 25,-4.26 h 289 c 41.5,0 75.4,33.91 75.4,75.42 v 226.16 c 0,8.75 -1.5,17.16 -4.3,25 -7.8,2.84 -16.2,4.37 -25,4.37 h -289 c -41.5,0 -75.5,-33.96 -75.5,-75.43" /></g><g
         transform="scale(2.11569)"
         id="g158"><path
           id="path160"
           style="fill:#262025;fill-opacity:1;fill-rule:nonzero;stroke:none"
           d="M 16243.3,6123.67 H 7964.53 c -31.2,0 -56.72,25.57 -56.72,56.72 v 3768.96 c 0,31.19 25.52,56.75 56.72,56.75 h 8278.77 c 31.2,0 56.7,-25.56 56.7,-56.75 V 6180.39 c 0,-31.15 -25.5,-56.72 -56.7,-56.72" /></g><g
         transform="scale(2.11162)"
         id="g162"><path
           id="path164"
           style="fill:#2c2328;fill-opacity:1;fill-rule:nonzero;stroke:none"
           d="M 16243.2,6150.07 H 8011.29 c -31.25,0 -56.83,25.57 -56.83,56.83 V 9954 c 0,31.25 25.58,56.8 56.83,56.8 h 8231.91 c 31.2,0 56.8,-25.55 56.8,-56.8 V 6206.9 c 0,-31.26 -25.6,-56.83 -56.8,-56.83" /></g><g
         transform="scale(2.10552)"
         id="g166"><path
           id="path168"
           style="fill:#f8b920;fill-opacity:1;fill-rule:nonzero;stroke:none"
           d="M 16300,9873.16 V 6271.53 c 0,-34.67 -28.4,-63.07 -63.1,-63.07 h -8149 c -34.67,0 -63.07,28.4 -63.07,63.07 v 3601.63 c 0,34.68 28.4,63.05 63.07,63.05 h 8149 c 34.7,0 63.1,-28.37 63.1,-63.05" /></g><g
         transform="scale(2.10552)"
         id="g170"><path
           id="path172"
           style="fill:#ffffff;fill-opacity:1;fill-rule:nonzero;stroke:none"
           d="M 16300,9873.16 V 8683.1 H 8024.83 v 1190.06 c 0,34.68 28.4,63.05 63.07,63.05 h 8149 c 34.7,0 63.1,-28.37 63.1,-63.05" /></g><g
         transform="scale(2.06659)"
         id="g174"><path
           id="path176"
           style="fill:#231d21;fill-opacity:1;fill-rule:nonzero;stroke:none"
           d="M 16300,9705.84 H 8471.21 v 24.09 H 16300 v -24.09" /></g><g
         transform="scale(2.06659)"
         id="g178"><path
           id="path180"
           style="fill:#231d21;fill-opacity:1;fill-rule:nonzero;stroke:none"
           d="M 16300,9276.25 H 8471.21 v 24.1 H 16300 v -24.1" /></g><g
         transform="scale(2.10552)"
         id="g182"><path
           id="path184"
           style="fill:#f9f9f7;fill-opacity:1;fill-rule:nonzero;stroke:none"
           d="M 16300,6933.51 V 6791.64 H 8024.83 v 141.87 H 16300" /></g><g
         transform="scale(1.95276)"
         id="g186"><path
           id="path188"
           style="fill:#262024;fill-opacity:1;fill-rule:nonzero;stroke:none"
           d="m 16179.7,7550.34 h -6121.5 c -66.24,0 -120.37,54.12 -120.37,120.34 v 1464.28 c 0,66.22 54.13,120.35 120.37,120.35 h 6121.5 c 66.2,0 120.3,-54.13 120.3,-120.35 V 7670.68 c 0,-66.22 -54.1,-120.34 -120.3,-120.34" /></g><g
         transform="scale(1.68829)"
         id="g190"><path
           id="path192"
           style="fill:#30252a;fill-opacity:1;fill-rule:nonzero;stroke:none"
           d="m 16262.5,9038.56 h -2205.4 c -20.6,0 -37.5,16.88 -37.5,37.56 v 1273.68 c 0,20.7 16.9,37.6 37.5,37.6 h 2205.4 c 20.6,0 37.5,-16.9 37.5,-37.6 V 9076.12 c 0,-20.68 -16.9,-37.56 -37.5,-37.56" /></g><g
         transform="scale(1.68399)"
         id="g194"><path
           id="path196"
           style="fill:#281f25;fill-opacity:1;fill-rule:nonzero;stroke:none"
           d="m 16262.4,9086.29 h -2127.7 c -20.8,0 -37.7,16.92 -37.7,37.59 v 1227.82 c 0,20.6 16.9,37.6 37.7,37.6 h 2127.7 c 20.7,0 37.6,-17 37.6,-37.6 V 9123.88 c 0,-20.67 -16.9,-37.59 -37.6,-37.59" /></g><g
         transform="scale(1.67911)"
         id="g198"><path
           id="path200"
           style="fill:#eaeaea;fill-opacity:1;fill-rule:nonzero;stroke:none"
           d="m 16262.2,9140.67 h -2039.1 c -20.8,0 -37.7,16.98 -37.7,37.76 v 1175.27 c 0,20.8 16.9,37.8 37.7,37.8 h 2039.1 c 20.8,0 37.8,-17 37.8,-37.8 V 9178.43 c 0,-20.78 -17,-37.76 -37.8,-37.76" /></g><g
         transform="scale(1.38513)"
         id="g202"><path
           id="path204"
           style="fill:#eaeaea;fill-opacity:1;fill-rule:nonzero;stroke:none"
           d="m 16300,11833.2 c 0,-450.9 -365.5,-816.4 -816.3,-816.4 -450.9,0 -816.4,365.5 -816.4,816.4 0,450.8 365.5,816.3 816.4,816.3 450.8,0 816.3,-365.5 816.3,-816.3" /></g><g
         transform="scale(1.90039)"
         id="g206"><path
           id="path208"
           style="fill:#342c2f;fill-opacity:1;fill-rule:nonzero;stroke:none"
           d="m 16300,8624.82 c 0,-361.29 -292.9,-654.23 -654.2,-654.23 -361.3,0 -654.2,292.94 -654.2,654.23 0,361.3 292.9,654.19 654.2,654.19 361.3,0 654.2,-292.89 654.2,-654.19" /></g><g
         transform="scale(1.90026)"
         id="g210"
         style="fill:#483e37"><path
           id="path212"
           style="fill:#f8b920;fill-opacity:1;fill-rule:nonzero;stroke:none"
           d="m 16067.7,9046.14 c 232.3,-232.39 232.3,-609.13 0,-841.52 -232.4,-232.38 -609.2,-232.38 -841.6,0 -232.3,232.39 -232.3,609.13 0,841.52 232.4,232.39 609.2,232.39 841.6,0" /></g><g
         transform="scale(1.89348)"
         id="g214"><path
           id="path216"
           style="fill:#ffffff;fill-opacity:1;fill-rule:nonzero;stroke:none"
           d="m 16099.7,8588.08 h 149.1 c -12.4,-100.92 -52.2,-193.35 -111.7,-269.66 l -105.4,105.41 c -2.3,2.22 -5.8,2.22 -8,0 l -88.5,-88.46 c -2.1,-2.16 -2.1,-5.75 0,-7.92 l 105.5,-105.47 c -76.3,-59.46 -168.8,-99.23 -269.7,-111.75 v 149.2 c 0,3.06 -2.5,5.6 -5.6,5.6 h -125.1 c -3.1,0 -5.6,-2.54 -5.6,-5.6 v -149.2 c -100.9,12.52 -193.3,52.29 -269.7,111.75 l 105.5,105.47 c 2.1,2.17 2.1,5.76 0,7.92 l -88.5,88.46 c -2.2,2.22 -5.7,2.22 -8,0 l -105.4,-105.41 c -59.5,76.31 -99.3,168.74 -111.7,269.66 h 149.1 c 3.1,0 5.6,2.54 5.6,5.6 v 125.11 c 0,3.12 -2.5,5.6 -5.6,5.6 h -149.1 c 12.4,100.93 52.2,193.35 111.7,269.71 l 105.4,-105.46 c 2.3,-2.17 5.8,-2.17 8,0 l 88.5,88.46 c 2.1,2.17 2.1,5.76 0,7.92 l -105.5,105.47 c 76.4,59.47 168.8,99.29 269.7,111.75 v -149.2 c 0,-3.06 2.5,-5.59 5.6,-5.59 h 125.1 c 3.1,0 5.6,2.53 5.6,5.59 v 149.2 c 100.9,-12.46 193.4,-52.28 269.7,-111.75 l -105.5,-105.47 c -2.1,-2.16 -2.1,-5.75 0,-7.92 l 88.5,-88.46 c 2.2,-2.17 5.7,-2.17 8,0 l 105.4,105.46 c 59.5,-76.36 99.3,-168.78 111.7,-269.71 h -149.1 c -3.1,0 -5.6,-2.48 -5.6,-5.6 v -125.11 c 0,-3.06 2.5,-5.6 5.6,-5.6 z m -396.9,665.33 c -329.8,0 -597.1,-267.33 -597.1,-597.15 0,-329.81 267.3,-597.2 597.1,-597.2 329.9,0 597.2,267.39 597.2,597.2 0,329.82 -267.3,597.15 -597.2,597.15" /></g><g
         transform="scale(1.39203)"
         id="g218"><path
           id="path220"
           style="fill:#342c2f;fill-opacity:1;fill-rule:nonzero;stroke:none"
           d="m 16300,11774.5 c 0,-493.2 -399.8,-893.1 -893.1,-893.1 -493.2,0 -893.1,399.9 -893.1,893.1 0,493.3 399.9,893.1 893.1,893.1 493.3,0 893.1,-399.8 893.1,-893.1" /></g><g
         transform="scale(1.3919)"
         id="g222"><path
           id="path224"
           style="fill:#f8b920;fill-opacity:1;fill-rule:nonzero;stroke:none"
           d="m 15982.7,12350 c 317.3,-317.3 317.3,-831.6 0,-1148.9 -317.2,-317.2 -831.6,-317.2 -1148.8,0 -317.3,317.3 -317.3,831.6 0,1148.9 317.2,317.3 831.6,317.3 1148.8,0" /></g><g
         transform="scale(1.38513)"
         id="g226"><path
           id="path228"
           style="fill:#eaeaea;fill-opacity:1;fill-rule:nonzero;stroke:none"
           d="m 16026.1,11740 h 203.9 c -17,-138 -71.4,-264.3 -152.7,-368.6 l -144.2,144.1 c -3,3 -7.8,3 -10.8,0 l -121,-121 c -2.9,-2.9 -2.9,-7.8 0,-10.8 l 144.2,-144.2 c -104.4,-81.3 -230.7,-135.6 -368.7,-152.7 v 203.9 c 0,4.2 -3.4,7.7 -7.6,7.7 h -171.1 c -4.2,0 -7.6,-3.5 -7.6,-7.7 v -203.9 c -138,17.1 -264.3,71.4 -368.7,152.7 l 144.2,144.2 c 3,3 3,7.9 0,10.8 l -121,121 c -2.9,3 -7.8,3 -10.8,0 l -144.2,-144.1 c -81.3,104.3 -135.6,230.6 -152.7,368.6 h 203.9 c 4.2,0 7.7,3.5 7.7,7.6 v 171.1 c 0,4.2 -3.5,7.6 -7.7,7.6 h -203.9 c 17.1,138 71.4,264.3 152.7,368.7 l 144.2,-144.1 c 3,-3 7.9,-3 10.8,0 l 121,120.9 c 3,2.9 3,7.9 0,10.8 l -144.2,144.2 c 104.4,81.3 230.7,135.7 368.7,152.8 v -204 c 0,-4.2 3.4,-7.7 7.6,-7.7 h 171.1 c 4.2,0 7.6,3.5 7.6,7.7 v 204 c 138,-17.1 264.3,-71.5 368.7,-152.8 l -144.2,-144.2 c -2.9,-2.9 -2.9,-7.9 0,-10.8 l 121,-120.9 c 3,-3 7.8,-3 10.8,0 l 144.2,144.1 c 81.3,-104.4 135.7,-230.7 152.7,-368.7 h -203.9 c -4.2,0 -7.7,-3.4 -7.7,-7.6 v -171.1 c 0,-4.1 3.5,-7.6 7.7,-7.6 z m -542.4,909.5 c -450.9,0 -816.4,-365.4 -816.4,-816.3 0,-450.9 365.5,-816.4 816.4,-816.4 450.8,0 816.3,365.5 816.3,816.4 0,450.9 -365.5,816.3 -816.3,816.3" /></g></g></g></svg>
