<?xml version="1.0" encoding="utf-8"?>
<!-- Generator: Adobe Illustrator 24.3.0, SVG Export Plug-In . SVG Version: 6.00 Build 0)  -->
<svg version="1.1" id="Layer_1" xmlns="http://www.w3.org/2000/svg" xmlns:xlink="http://www.w3.org/1999/xlink" x="0px" y="0px"
	 viewBox="0 0 377.48 377.48" style="enable-background:new 0 0 377.48 377.48;" xml:space="preserve">
<style type="text/css">
	.st0{fill:#333333;}
	.st1{fill:#4E4E4E;}
	.st2{fill:#F5B21A;}
	.st3{fill:#E6E6E5;}
</style>
<path class="st0" d="M334.46,15.75h-40.5l-7.51,8.47h-14.07l-8.33-8.47H26.47c-4.28,0-7.74,3.47-7.74,7.75v326.54
	c0,4.28,3.46,7.74,7.74,7.74h327.08c4.28,0,7.74-3.47,7.74-7.74V42.58L334.46,15.75z M354.74,338.65H338.9V322.8h15.84V338.65z"/>
<path class="st1" d="M46.96,15.75v86.23c0,4.28,3.47,7.75,7.74,7.75h136.4c4.28,0,7.74-3.47,7.74-7.75V15.75H46.96z"/>
<path class="st2" d="M310.76,357.77V177.18c0-3.59-2.91-6.5-6.5-6.5H76.49c-3.59,0-6.5,2.91-6.5,6.5v180.59H310.76z"/>
<path class="st3" d="M104.87,15.75v86.23c0,4.28,3.47,7.75,7.75,7.75h157.16c4.28,0,7.74-3.47,7.74-7.75V15.75H104.87z
	 M255.58,103.17h-40.43V27.22h40.43V103.17z"/>
<path class="st0" d="M301.31,251.91c-33.44-1.08-60.83,10.89-60.83,10.89l-0.02,60.76c-3.4-1.31-7.54-1.62-11.75-0.63
	c-9.07,2.14-15,9.51-13.26,16.48c1.74,6.96,10.5,10.88,19.57,8.74c8.55-2.02,14.31-8.69,13.48-15.28v-45.4
	c0,0,19.37-6.57,44.49-8.22v33.77c-3.37-1.25-7.43-1.54-11.56-0.56c-9.07,2.14-15,9.51-13.26,16.48c1.74,6.96,10.5,10.88,19.57,8.74
	c7.92-1.87,13.45-7.73,13.56-13.82l0,0V251.91L301.31,251.91z"/>
</svg>
