<?xml version="1.0" encoding="utf-8"?>
<!-- Generator: Adobe Illustrator 24.3.0, SVG Export Plug-In . SVG Version: 6.00 Build 0)  -->
<svg version="1.1" id="Layer_1" xmlns="http://www.w3.org/2000/svg" xmlns:xlink="http://www.w3.org/1999/xlink" x="0px" y="0px"
	 viewBox="0 0 465.7 465.7" style="enable-background:new 0 0 465.7 465.7;" xml:space="preserve">
<style type="text/css">
	.st0{fill:#E0F2F0;}
	.st1{fill:#EDF7F9;}
	.st2{fill:#CDDEDD;}
</style>
<g>
	<g>
		<path class="st0" d="M232.85,0C104.25,0,0,104.25,0,232.85C0,361.45,104.25,465.7,232.85,465.7
			c128.6,0,232.85-104.25,232.85-232.85C465.7,104.25,361.45,0,232.85,0z M232.85,275.18c-23.38,0-42.34-18.96-42.34-42.34
			c0-23.38,18.96-42.34,42.34-42.34c23.38,0,42.34,18.96,42.34,42.34C275.19,256.23,256.23,275.18,232.85,275.18z"/>
	</g>
	<g>
		<g>
			<path class="st1" d="M232.85,275.18c-23.38,0-42.34-18.96-42.34-42.34H0C0,361.45,104.25,465.7,232.85,465.7V275.18z"/>
		</g>
		<g>
			<path class="st1" d="M232.85,190.51c23.38,0,42.34,18.96,42.34,42.34H465.7C465.7,104.25,361.45,0,232.85,0V190.51z"/>
		</g>
	</g>
	<g>
		<path class="st2" d="M232.85,302.72c-38.53,0-69.88-31.34-69.88-69.87s31.35-69.88,69.88-69.88c38.53,0,69.88,31.35,69.88,69.88
			S271.38,302.72,232.85,302.72z M232.85,191.02c-23.06,0-41.83,18.76-41.83,41.83c0,23.06,18.76,41.83,41.83,41.83
			c23.06,0,41.83-18.77,41.83-41.83C274.68,209.78,255.91,191.02,232.85,191.02z"/>
	</g>
</g>
</svg>
