<?xml version="1.0" encoding="utf-8"?>
<!-- Generator: Adobe Illustrator 16.0.0, SVG Export Plug-In . SVG Version: 6.00 Build 0)  -->
<!DOCTYPE svg PUBLIC "-//W3C//DTD SVG 1.1//EN" "http://www.w3.org/Graphics/SVG/1.1/DTD/svg11.dtd">
<svg version="1.1" id="Layer_1" xmlns="http://www.w3.org/2000/svg" xmlns:xlink="http://www.w3.org/1999/xlink" x="0px" y="0px"
	 width="1721.811px" height="1058.525px" viewBox="0 0 1721.811 1058.525" enable-background="new 0 0 1721.811 1058.525"
	 xml:space="preserve">
<g>
	<g display="none">
		<path display="inline" fill="#424242" d="M820.925,532.867c-37.293,32.649-14.422,121.402,39.979,152.811
			c54.402,31.409,125.666,8.065,160.678-27.016c22.771-22.814,28.781-59.834-25.615-91.244
			C941.561,536.01,858.221,500.209,820.925,532.867z"/>
	</g>
	<path fill="#D9D8CF" d="M280.204,721.525c-53.847-31.817-92.56-67.396-115.078-105.741c-16.125-27.457-23.905-55.496-23.213-82.917
		c-2.441-3.516-3.179-7.594-2.289-11.201c1.814-6.945,4.159-13.79,6.979-20.517c1.536-5.605,3.432-11.169,5.719-16.674
		c16.002-38.571-25.731-98.301,21.721-125.322c0,0,65.262-49.119,65.268-49.127c49.007-27.907,119.256-66.669,188.987-75.009
		c7.114-0.849,27.88,0.613,35.07,0c12.03-1.599,24.376-17.851,36.794-18.832c6.339-0.473,2.282,106.549,8.384,108.044
		c52.398-0.018,105.851,5.941,157.75,17.747c63.719,14.498,122.967,38.167,173.905,68.763
		c50.079,28.502,92.288,63.85,123.044,103.947l-17.828,4.609c-1.227-1.598-2.484-3.193-3.746-4.782l-3.076,0.813
		c-28.811-36.777-67.217-69.567-112.318-96.679c-45.469-25.85-97.599-45.808-153.495-58.189
		c-49.083-10.87-96.089-15.657-140.02-15.889c-0.019,0.127-0.034,0.25-0.059,0.404c-2.403,9.248-17.775,15.121-32.935,16.161
		c-151.962,12.423-288.554,72.929-312.157,160.492c-2.01,8.74,6.016,24.332-10.038,25.591c-0.198,0.008-0.359,0.014-0.536,0.021
		c-0.244,22.97,5.909,47.461,20.467,73.052c20.298,35.679,56.009,68.927,103.809,97.716
		c46.175,26.294,102.218,48.801,165.573,65.956l-1.447,1.758c2.728,0.754,5.47,1.503,8.234,2.234l-8.229,10.233
		c-65.776-17.441-126.231-41.842-174.837-70.57c-1.112-0.668-2.216-1.327-3.316-1.995
		C284.907,724.27,282.534,722.902,280.204,721.525z"/>
	<path fill="#E8E7DE" d="M280.204,709.425c-53.847-31.817-92.56-67.396-115.078-105.741c-16.125-27.457-23.905-55.496-23.213-82.917
		c-2.441-3.516-3.179-7.595-2.289-11.201c1.814-6.944,4.159-13.79,6.979-20.517c1.536-5.605,3.432-11.169,5.719-16.675
		c16.002-38.571-25.731-98.301,21.721-125.322c0,0,65.262-49.118,65.268-49.127c49.007-27.907,119.256-66.669,188.987-75.009
		c7.114-0.849,27.88,0.613,35.07,0c12.03-1.599,24.376-17.851,36.794-18.832c6.339-0.473,2.282,106.549,8.384,108.044
		c52.398-0.019,105.851,5.94,157.75,17.746c63.719,14.498,122.967,38.167,173.905,68.763
		c50.079,28.502,92.288,63.849,123.044,103.947l-17.828,4.61c-1.227-1.599-2.484-3.193-3.746-4.782l-3.076,0.813
		c-28.811-36.777-67.217-69.567-112.318-96.679c-45.469-25.85-97.599-45.808-153.495-58.189
		c-49.083-10.87-96.089-15.657-140.02-15.889c-0.019,0.127-0.034,0.25-0.059,0.404c-2.403,9.248-17.775,15.121-32.935,16.161
		c-151.962,12.423-288.554,72.929-312.157,160.492c-2.01,8.739,6.016,24.332-10.038,25.591c-0.198,0.009-0.359,0.014-0.536,0.022
		c-0.244,22.97,5.909,47.461,20.467,73.052c20.298,35.678,56.009,68.927,103.809,97.715
		c46.175,26.295,102.218,48.801,165.573,65.957l-1.447,1.758c2.728,0.754,5.47,1.503,8.234,2.234l-8.229,10.233
		c-65.776-17.441-126.231-41.843-174.837-70.571c-1.112-0.668-2.216-1.326-3.316-1.994
		C284.907,712.168,282.534,710.801,280.204,709.425z"/>
	<rect x="131.76" y="413.764" fill="#333333" width="54.814" height="114.017"/>
	<g>
		<path fill="#333333" d="M131.76,526.686c1.885-7.231,4.324-14.349,7.26-21.353c1.594-5.841,3.573-11.628,5.95-17.355
			c16.667-40.153,51.571-76.235,100.958-104.36c0.006,0,0.011-0.009,0.016-0.014c51.015-29.047,116.349-48.992,188.94-57.672
			c7.395-0.89,14.845-1.648,22.334-2.289c12.529-1.663,25.251-3.025,38.176-4.047c6.6-0.495,14.021,0.027,20.37,1.585l25.206,21.166
			c-0.018,0.132-0.041,0.264-0.068,0.422c-2.496,9.63-19.423,17.675-35.208,18.756c-158.174,12.932-280.256,81.049-304.83,172.195
			c-2.087,9.099-12.897,18.251-29.608,19.559c-0.202,0.01-0.368,0.019-0.554,0.027l-36.558-14.957
			C131.598,534.688,130.829,530.447,131.76,526.686z"/>
	</g>
	<path fill="#E3E2D9" d="M278.109,619.782c-52.896-31.272-90.828-66.407-112.759-104.419
		c-15.705-27.224-23.172-43.268-22.283-70.573c-2.382-3.486-3.08-19.353-2.174-22.956c1.843-6.93,4.208-13.757,7.041-20.478
		c1.558-5.602,3.47-11.151,5.769-16.646c16.081-38.532,49.437-73.301,96.461-100.564c0,0,0.009-0.004,0.015-0.01
		c48.567-28.15,110.65-47.709,179.523-56.542c7.023-0.895,14.095-1.681,21.194-2.341c11.885-1.687,23.963-3.086,36.226-4.152
		c6.258-0.522,13.284-0.074,19.295,1.368c51.705-0.417,104.405,5.116,155.528,16.484c62.767,13.958,121.053,37.08,171.085,67.158
		c49.202,28.008,90.588,62.881,120.635,102.582l-17.629,4.725c-1.197-1.587-2.426-3.165-3.66-4.734l-3.041,0.832
		c-28.152-36.407-65.805-68.764-110.104-95.426c-44.672-25.393-95.962-44.878-151.026-56.782
		c-48.351-10.454-94.699-14.872-138.046-14.772c-0.02,0.131-0.037,0.253-0.062,0.407c-2.441,9.226-17.654,15.189-32.621,16.34
		c-150.045,13.508-267.169,81.415-291.118,168.781c-2.049,8.717-12.361,17.555-28.212,18.924c-0.196,0.015-0.354,0.021-0.529,0.027
		c-0.413,22.878,5.474,47.213,19.646,72.589c19.762,35.374,54.75,68.212,101.7,96.513c45.367,25.838,100.499,47.828,162.885,64.434
		l-1.44,1.761c2.686,0.73,5.386,1.457,8.108,2.163l-8.198,10.252c-64.774-16.873-124.246-40.718-171.992-68.959
		c-1.092-0.652-2.177-1.3-3.257-1.956C282.729,622.479,280.398,621.141,278.109,619.782z"/>
	<path fill="#F2F1E8" d="M280.204,605.95c-53.847-31.813-92.56-67.392-115.078-105.736c-16.125-27.462-23.905-55.501-23.213-82.917
		c-2.441-3.52-3.179-7.594-2.289-11.205c1.814-6.945,4.159-13.785,6.979-20.512c1.536-5.614,3.432-11.174,5.719-16.674
		c16.002-38.576,49.541-73.242,96.99-100.263c0,0,0.01-0.005,0.016-0.009c49.005-27.902,111.775-47.07,181.509-55.414
		c7.11-0.845,14.272-1.581,21.461-2.189c12.033-1.604,24.263-2.916,36.683-3.893c6.339-0.477,13.462,0.027,19.565,1.521
		c52.398-0.022,105.851,5.938,157.75,17.746c63.719,14.499,122.967,38.168,173.905,68.759
		c50.079,28.507,92.288,63.849,123.044,103.952l-17.828,4.61c-1.227-1.603-2.484-3.197-3.746-4.783l-3.076,0.813
		c-28.811-36.781-67.217-69.567-112.318-96.684c-45.469-25.845-97.599-45.807-153.495-58.184
		c-49.083-10.87-96.089-15.662-140.02-15.893c-0.019,0.131-0.034,0.254-0.059,0.409c-2.403,9.248-17.775,15.12-32.935,16.161
		c-151.962,12.418-270.145,79.724-293.748,167.287c-2.01,8.739-12.394,17.537-28.447,18.791c-0.198,0.013-0.359,0.018-0.536,0.022
		c-0.244,22.974,5.909,47.461,20.467,73.056c20.298,35.68,56.009,68.927,103.809,97.711
		c46.175,26.298,102.218,48.806,165.573,65.961l-1.447,1.758c2.728,0.754,5.47,1.504,8.234,2.234l-8.229,10.233
		c-65.776-17.441-126.231-41.846-174.837-70.575c-1.112-0.663-2.216-1.322-3.316-1.989
		C284.907,608.693,282.534,607.332,280.204,605.95z"/>
	<g>
		<g>
			<path fill="#E2E3E4" d="M1025.25,639.193c45.089-15.226,80.918-64.621,72.506-105.832c-12.326-49.45-29.797-96.053-53.16-141.814
				c-20.912-37.028-81.695-54.143-126.863-39.19c-8.738,2.93-13.109,4.388-21.848,7.313
				c11.365,104.374,46.82,198.955,107.531,286.832C1012.146,643.576,1016.516,642.118,1025.25,639.193z"/>
		</g>
		<g>
			<g>
				<path fill="#333333" d="M797.215,378.637c25.107-15.184,55.776-25.44,85.407-28.556
					c38.952,103.915,77.907,207.835,116.86,311.755c-25.1,15.18-55.77,25.432-85.402,28.548
					C875.123,586.464,836.174,482.553,797.215,378.637z"/>
			</g>
			<path fill="#333333" d="M997.221,487.177c32.275,86.083,32.512,164.544,0.526,175.236
				c-31.985,10.691-84.067-50.432-116.338-136.514c-32.276-86.083-32.51-164.544-0.524-175.231
				C912.867,339.966,964.953,401.094,997.221,487.177z"/>
			<path fill="#1A1A1A" d="M913.555,515.147c32.275,86.092,32.504,164.539,0.525,175.236
				c-31.988,10.691-84.072-50.428-116.347-136.515c-32.267-86.083-32.505-164.544-0.518-175.232
				C829.199,367.941,881.281,429.06,913.555,515.147z"/>
			<g>
				<path d="M801.799,385.605c0.011-0.005,0.021-0.009,0.032-0.009c2.24-0.509,4.642-0.604,7.124-0.287
					c0.727,0.086,1.192,0.686,1.042,1.327c-0.143,0.645-0.854,1.081-1.567,0.994c-2.139-0.259-4.186-0.186-6.081,0.241
					c-0.723,0.159-1.424-0.223-1.567-0.845C800.638,386.4,801.095,385.769,801.799,385.605z M795.764,388.271
					c0.5-0.118,1.039,0.014,1.365,0.377c0.441,0.495,0.312,1.235-0.279,1.653c-1.54,1.081-2.977,2.484-4.26,4.17
					c-0.428,0.559-1.261,0.731-1.865,0.395c-0.604-0.341-0.754-1.068-0.328-1.617c1.451-1.903,3.087-3.506,4.863-4.75
					C795.417,388.395,795.589,388.322,795.764,388.271z M814.681,386.95c0.281-0.068,0.591-0.059,0.872,0.045
					c1.915,0.722,3.904,1.658,5.914,2.789c0.603,0.341,0.75,1.072,0.325,1.617c-0.422,0.554-1.257,0.722-1.862,0.382
					c-1.896-1.068-3.765-1.945-5.546-2.621c-0.663-0.25-0.937-0.936-0.616-1.535C813.958,387.281,814.296,387.036,814.681,386.95z
					 M788.005,398.028c0.265-0.059,0.547-0.054,0.816,0.032c0.682,0.223,0.993,0.899,0.7,1.504c-0.799,1.671-1.533,3.52-2.167,5.496
					c-0.209,0.631-0.945,1.031-1.655,0.886c-0.711-0.141-1.119-0.768-0.916-1.403c0.669-2.071,1.438-4.02,2.281-5.778
					C787.249,398.392,787.604,398.133,788.005,398.028z M825.661,393.013c0.399-0.099,0.833-0.045,1.166,0.205
					c1.614,1.14,3.279,2.43,4.945,3.82c0.519,0.432,0.512,1.176-0.013,1.658c-0.522,0.486-1.375,0.522-1.89,0.086
					c-1.619-1.358-3.234-2.594-4.797-3.716c-0.554-0.386-0.613-1.131-0.129-1.645C825.139,393.218,825.391,393.077,825.661,393.013z
					 M784.233,409.456c0.174-0.041,0.36-0.05,0.542-0.032c0.725,0.086,1.201,0.673,1.063,1.323c-0.407,1.821-0.75,3.76-1.042,5.772
					c-0.088,0.641-0.761,1.126-1.492,1.085c-0.73-0.045-1.247-0.6-1.154-1.249c0.298-2.058,0.655-4.052,1.062-5.923
					C783.317,409.946,783.729,409.579,784.233,409.456z M835.098,400.84c0.456-0.113,0.951-0.009,1.286,0.3
					c1.426,1.354,2.891,2.802,4.349,4.31c0.463,0.482,0.372,1.227-0.207,1.658c-0.577,0.436-1.413,0.395-1.873-0.086
					c-1.438-1.476-2.867-2.902-4.27-4.229c-0.49-0.459-0.436-1.204,0.116-1.653C834.673,400.989,834.88,400.895,835.098,400.84z
					 M782.517,421.188c0.127-0.045,0.258-0.05,0.391-0.05c0.734,0.005,1.291,0.54,1.234,1.19c-0.16,1.872-0.287,3.833-0.362,5.832
					c-0.029,0.65-0.64,1.181-1.382,1.199c-0.739,0.014-1.315-0.495-1.293-1.14c0.086-2.03,0.205-4.024,0.372-5.932
					C781.523,421.756,781.957,421.316,782.517,421.188z M843.496,409.542c0.495-0.127,1.031,0.015,1.36,0.373
					c1.298,1.462,2.624,3.016,3.934,4.592c0.422,0.509,0.269,1.245-0.332,1.649c-0.609,0.404-1.435,0.309-1.858-0.205
					c-1.294-1.553-2.604-3.079-3.886-4.528c-0.443-0.49-0.32-1.235,0.27-1.653C843.142,409.66,843.319,409.579,843.496,409.542z
					 M782.041,432.93c0.096-0.022,0.188-0.041,0.286-0.041c0.739-0.041,1.338,0.454,1.343,1.104c0,1.894,0.024,3.856,0.098,5.827
					c0.02,0.641-0.557,1.222-1.298,1.277c-0.74,0.054-1.353-0.423-1.375-1.073c-0.066-1.998-0.098-3.979-0.101-5.896
					C780.996,433.57,781.442,433.08,782.041,432.93z M851.154,418.772c0.524-0.132,1.091,0.022,1.406,0.427
					c1.203,1.549,2.419,3.147,3.622,4.792c0.391,0.522,0.197,1.258-0.429,1.626c-0.627,0.373-1.449,0.254-1.84-0.277
					c-1.198-1.626-2.396-3.207-3.585-4.742c-0.406-0.514-0.236-1.25,0.379-1.631C850.845,418.877,850.999,418.813,851.154,418.772z
					 M782.425,444.644c0.067-0.018,0.141-0.022,0.217-0.041c0.734-0.073,1.363,0.391,1.404,1.031
					c0.113,1.908,0.266,3.842,0.443,5.813c0.059,0.641-0.498,1.241-1.229,1.318c-0.736,0.091-1.379-0.35-1.438-0.999
					c-0.175-1.985-0.321-3.948-0.439-5.865C781.346,445.33,781.795,444.798,782.425,444.644z M858.235,428.37
					c0.549-0.136,1.136,0.041,1.438,0.468c1.122,1.612,2.25,3.252,3.372,4.928c0.363,0.545,0.139,1.272-0.502,1.621
					c-0.645,0.351-1.46,0.196-1.828-0.34c-1.108-1.671-2.225-3.297-3.343-4.887c-0.372-0.541-0.163-1.276,0.47-1.63
					C857.969,428.461,858.097,428.401,858.235,428.37z M783.462,456.295c0.042-0.014,0.098-0.023,0.152-0.032
					c0.731-0.095,1.388,0.336,1.462,0.977c0.214,1.894,0.453,3.82,0.716,5.777c0.084,0.636-0.443,1.24-1.172,1.358
					c-0.729,0.109-1.397-0.313-1.479-0.949c-0.273-1.967-0.513-3.911-0.724-5.818C782.347,457.017,782.804,456.449,783.462,456.295z
					 M864.842,438.24c0.572-0.141,1.172,0.05,1.463,0.513c1.055,1.64,2.107,3.32,3.156,5.033c0.344,0.549,0.092,1.276-0.565,1.604
					c-0.653,0.327-1.459,0.154-1.804-0.395c-1.039-1.704-2.088-3.375-3.137-5.005c-0.351-0.55-0.111-1.272,0.539-1.622
					C864.607,438.313,864.723,438.267,864.842,438.24z M785.015,467.868c0.034-0.009,0.073-0.014,0.112-0.019
					c0.729-0.127,1.396,0.287,1.496,0.923c0.3,1.898,0.613,3.811,0.949,5.745c0.112,0.631-0.388,1.272-1.117,1.39
					c-0.736,0.136-1.41-0.277-1.517-0.908c-0.343-1.949-0.666-3.875-0.956-5.778C783.883,468.622,784.342,468.031,785.015,467.868z
					 M871.041,448.323c0.581-0.145,1.199,0.068,1.486,0.536c0.986,1.685,1.977,3.401,2.963,5.133
					c0.321,0.563,0.047,1.276-0.619,1.594s-1.466,0.118-1.785-0.446c-0.979-1.73-1.963-3.429-2.948-5.1
					c-0.333-0.564-0.071-1.281,0.585-1.604C870.828,448.382,870.941,448.346,871.041,448.323z M787.02,479.374
					c0.025-0.014,0.047-0.018,0.065-0.018c0.729-0.137,1.417,0.254,1.538,0.881c0.366,1.885,0.749,3.788,1.152,5.709
					c0.129,0.632-0.32,1.276-1.076,1.413c-0.729,0.15-1.427-0.227-1.559-0.863c-0.407-1.925-0.786-3.837-1.154-5.731
					C785.875,480.15,786.324,479.542,787.02,479.374z M876.88,458.58c0.599-0.136,1.228,0.086,1.492,0.582
					c0.944,1.708,1.874,3.438,2.806,5.2c0.307,0.573,0.002,1.281-0.672,1.59c-0.673,0.296-1.461,0.073-1.764-0.504
					c-0.929-1.744-1.855-3.474-2.789-5.178c-0.313-0.563-0.021-1.285,0.643-1.581C876.689,458.639,876.785,458.607,876.88,458.58z
					 M789.41,490.797c0.007,0,0.018-0.005,0.032-0.014c0.727-0.159,1.427,0.222,1.565,0.849c0.425,1.872,0.867,3.761,1.328,5.669
					c0.15,0.622-0.304,1.258-1.023,1.44c-0.007-0.005-0.007,0-0.014,0c-0.725,0.163-1.432-0.205-1.579-0.827
					c-0.458-1.913-0.908-3.806-1.333-5.691C788.248,491.597,788.702,490.974,789.41,490.797z M882.387,468.999
					c0.613-0.15,1.252,0.091,1.512,0.6c0.887,1.74,1.768,3.493,2.646,5.269c0.283,0.582-0.033,1.285-0.715,1.567
					c-0.676,0.295-1.459,0.05-1.748-0.527c-0.871-1.771-1.756-3.52-2.635-5.246c-0.293-0.578,0.02-1.286,0.689-1.582
					C882.223,469.045,882.305,469.021,882.387,468.999z M792.152,502.144c0.72-0.173,1.431,0.186,1.585,0.808
					c0.484,1.863,0.977,3.743,1.492,5.627c0.17,0.627-0.275,1.276-0.997,1.458c-0.734,0.195-1.434-0.173-1.606-0.786
					c-0.518-1.894-1.008-3.788-1.494-5.655c-0.162-0.626,0.295-1.272,1.013-1.449C792.152,502.144,792.152,502.144,792.152,502.144z
					 M887.592,479.55c0.623-0.159,1.271,0.1,1.52,0.622c0.842,1.754,1.668,3.534,2.494,5.329c0.273,0.59-0.064,1.285-0.744,1.558
					c-0.686,0.277-1.463,0.018-1.735-0.572c-0.825-1.785-1.651-3.552-2.485-5.31c-0.278-0.581,0.045-1.281,0.727-1.554
					C887.443,479.587,887.516,479.564,887.592,479.55z M795.207,513.413c0.708-0.177,1.412,0.167,1.585,0.781
					c0.527,1.858,1.079,3.721,1.639,5.592c0.182,0.617-0.249,1.276-0.962,1.471c-0.727,0.209-1.443-0.136-1.626-0.75
					c-0.566-1.885-1.111-3.756-1.647-5.618c-0.175-0.618,0.266-1.276,0.978-1.472C795.183,513.413,795.195,513.413,795.207,513.413z
					 M892.505,490.211c0.638-0.154,1.29,0.109,1.536,0.645c0.789,1.785,1.58,3.579,2.357,5.387c0.254,0.586-0.105,1.285-0.794,1.54
					c-0.683,0.264-1.464-0.004-1.718-0.595c-0.773-1.808-1.555-3.593-2.346-5.359c-0.262-0.595,0.084-1.29,0.773-1.563
					C892.373,490.243,892.438,490.225,892.505,490.211z M798.561,524.6c0.695-0.168,1.39,0.159,1.576,0.759
					c0.582,1.844,1.176,3.692,1.782,5.55c0.203,0.613-0.213,1.285-0.924,1.49c-0.708,0.218-1.444-0.109-1.644-0.723
					c-0.611-1.867-1.21-3.72-1.792-5.577c-0.191-0.613,0.229-1.271,0.937-1.481C798.52,524.613,798.542,524.604,798.561,524.6z
					 M897.143,500.989c0.649-0.164,1.313,0.118,1.549,0.663c0.736,1.804,1.486,3.606,2.217,5.438
					c0.242,0.59-0.131,1.281-0.826,1.526c-0.699,0.254-1.453-0.037-1.694-0.631c-0.731-1.817-1.476-3.625-2.218-5.414
					c-0.248-0.591,0.114-1.285,0.81-1.535C897.034,501.013,897.092,500.998,897.143,500.989z M802.204,535.705
					c0.678-0.163,1.372,0.15,1.571,0.727c0.623,1.835,1.261,3.675,1.917,5.514c0.214,0.609-0.186,1.281-0.892,1.518
					c-0.683,0.223-1.454-0.086-1.668-0.695c-0.652-1.853-1.293-3.701-1.919-5.541c-0.214-0.604,0.193-1.281,0.904-1.498
					C802.142,535.719,802.172,535.719,802.204,535.705z M901.518,511.85c0.654-0.159,1.33,0.137,1.545,0.695
					c0.699,1.799,1.389,3.602,2.07,5.419c0.691,1.84,1.367,3.675,2.025,5.5c0.218,0.613-0.172,1.286-0.881,1.518
					c-0.699,0.227-1.453-0.083-1.672-0.682c-0.658-1.821-1.326-3.652-2.018-5.482c-0.68-1.813-1.367-3.611-2.061-5.405
					c-0.232-0.6,0.15-1.276,0.849-1.522C901.416,511.877,901.467,511.863,901.518,511.85z M806.112,546.737
					c0.665-0.167,1.35,0.137,1.562,0.704c0.334,0.918,0.68,1.845,1.022,2.768c0.343,0.903,0.682,1.798,1.027,2.697
					c0.227,0.608-0.157,1.29-0.852,1.526c-0.712,0.24-1.458-0.063-1.69-0.663c-0.34-0.899-0.683-1.808-1.026-2.712
					c-0.35-0.932-0.691-1.854-1.029-2.78c-0.227-0.604,0.163-1.28,0.868-1.512C806.035,546.756,806.073,546.742,806.112,546.737z
					 M907.553,528.261c0.678-0.164,1.367,0.145,1.564,0.731c0.648,1.853,1.275,3.706,1.893,5.546
					c0.205,0.608-0.207,1.28-0.912,1.499c-0.723,0.208-1.449-0.109-1.658-0.718c-0.609-1.84-1.24-3.68-1.877-5.524
					c-0.213-0.604,0.182-1.29,0.895-1.499C907.486,528.284,907.521,528.261,907.553,528.261z M810.283,557.666
					c0.657-0.163,1.332,0.132,1.552,0.687c0.724,1.826,1.444,3.629,2.178,5.428c0.25,0.59-0.121,1.281-0.813,1.531
					c-0.711,0.249-1.46-0.032-1.705-0.628c-0.736-1.808-1.473-3.619-2.192-5.445c-0.236-0.604,0.141-1.281,0.838-1.531
					C810.191,557.689,810.236,557.68,810.283,557.666z M911.26,539.353c0.686-0.168,1.381,0.154,1.572,0.749
					c0.604,1.876,1.186,3.733,1.758,5.582c0.189,0.628-0.236,1.281-0.953,1.481c-0.72,0.19-1.445-0.128-1.627-0.745
					c-0.572-1.844-1.154-3.701-1.754-5.564c-0.194-0.608,0.224-1.275,0.936-1.489C911.209,539.361,911.236,539.357,911.26,539.353z
					 M814.722,568.513c0.643-0.159,1.312,0.118,1.54,0.668c0.762,1.799,1.538,3.589,2.316,5.373c0.256,0.596-0.096,1.281-0.786,1.54
					c-0.697,0.268-1.458,0-1.712-0.59c-0.783-1.781-1.562-3.58-2.33-5.396c-0.25-0.591,0.107-1.285,0.8-1.549
					C814.606,568.54,814.667,568.521,814.722,568.513z M914.689,550.521c0.699-0.172,1.398,0.164,1.581,0.772
					c0.554,1.885,1.091,3.766,1.616,5.632c0.164,0.613-0.271,1.276-0.999,1.458c-0.7,0.154-1.437-0.154-1.608-0.781
					c-0.512-1.861-1.049-3.72-1.6-5.605c-0.182-0.608,0.252-1.271,0.965-1.466C914.662,550.526,914.68,550.521,914.689,550.521z
					 M819.428,579.251c0.631-0.15,1.292,0.113,1.53,0.649c0.811,1.79,1.628,3.562,2.452,5.319c0.278,0.58-0.059,1.289-0.737,1.562
					c-0.685,0.272-1.468,0.027-1.737-0.563c-0.832-1.763-1.65-3.548-2.466-5.342c-0.269-0.591,0.074-1.29,0.762-1.559
					C819.297,579.296,819.361,579.269,819.428,579.251z M917.818,561.772c0.719-0.182,1.43,0.187,1.595,0.794
					c0.327,1.246,0.646,2.48,0.958,3.707l0.496,1.957c0.15,0.627-0.301,1.268-1.018,1.44c0,0,0,0-0.006,0.01
					c-0.722,0.173-1.434-0.196-1.594-0.817l-0.484-1.953c-0.315-1.227-0.633-2.453-0.959-3.68c-0.164-0.632,0.285-1.281,1.008-1.458
					C917.814,561.772,917.814,561.772,917.818,561.772z M824.417,589.893c0.619-0.149,1.262,0.087,1.517,0.609
					c0.863,1.785,1.726,3.533,2.595,5.273c0.291,0.576-0.022,1.275-0.704,1.576c-0.681,0.286-1.457,0.05-1.75-0.527
					c-0.875-1.744-1.744-3.516-2.608-5.287c-0.279-0.586,0.039-1.285,0.721-1.571C824.26,589.934,824.339,589.911,824.417,589.893z
					 M920.641,573.096c0.008,0,0.018-0.004,0.026,0c0.722-0.177,1.427,0.195,1.571,0.826c0.454,1.917,0.881,3.825,1.289,5.706
					c0.137,0.631-0.335,1.294-1.063,1.427c-0.727,0.154-1.426-0.223-1.561-0.859c-0.41-1.871-0.838-3.766-1.282-5.674
					C919.478,573.9,919.932,573.273,920.641,573.096z M829.692,600.403c0.606-0.146,1.247,0.087,1.508,0.595
					c0.911,1.754,1.828,3.479,2.751,5.196c0.306,0.567,0.013,1.276-0.66,1.581c-0.676,0.318-1.461,0.091-1.771-0.477
					c-0.929-1.722-1.848-3.462-2.767-5.224c-0.296-0.577,0.007-1.29,0.684-1.581C829.52,600.458,829.606,600.426,829.692,600.403z
					 M923.119,584.502c0.023-0.01,0.047-0.014,0.064-0.014c0.721-0.15,1.421,0.24,1.545,0.871c0.389,1.936,0.758,3.848,1.107,5.751
					c0.109,0.632-0.364,1.272-1.107,1.39c-0.736,0.146-1.417-0.254-1.536-0.891c-0.345-1.88-0.709-3.787-1.099-5.709
					C921.975,585.282,922.43,584.669,923.119,584.502z M835.279,610.787c0.595-0.141,1.222,0.072,1.494,0.563
					c0.968,1.73,1.936,3.435,2.912,5.12c0.323,0.563,0.054,1.275-0.608,1.594c-0.666,0.327-1.464,0.127-1.79-0.437
					c-0.979-1.689-1.953-3.402-2.927-5.142c-0.316-0.572-0.032-1.285,0.636-1.599C835.09,610.842,835.184,610.809,835.279,610.787z
					 M925.228,595.979c0.036-0.009,0.063-0.014,0.099-0.018c0.732-0.128,1.408,0.281,1.508,0.912
					c0.328,1.954,0.629,3.884,0.904,5.796c0.096,0.641-0.432,1.235-1.158,1.363c-0.734,0.117-1.398-0.305-1.498-0.941
					c-0.273-1.889-0.564-3.806-0.887-5.745C924.092,596.733,924.555,596.147,925.228,595.979z M841.205,621.006
					c0.584-0.145,1.197,0.069,1.476,0.537c1.027,1.703,2.06,3.375,3.093,5.023c0.341,0.554,0.098,1.276-0.551,1.604
					c-0.657,0.354-1.463,0.177-1.811-0.382c-1.04-1.653-2.079-3.343-3.111-5.056c-0.334-0.563-0.073-1.28,0.579-1.612
					C840.993,621.075,841.094,621.029,841.205,621.006z M926.898,607.539c0.055-0.014,0.1-0.022,0.154-0.031
					c0.732-0.104,1.391,0.326,1.473,0.967c0.236,1.977,0.457,3.92,0.654,5.833c0.066,0.636-0.479,1.239-1.217,1.335
					c-0.729,0.09-1.377-0.35-1.441-1c-0.195-1.89-0.409-3.824-0.654-5.777C925.795,608.267,926.244,607.698,926.898,607.539z
					 M847.504,631.04c0.557-0.136,1.158,0.051,1.449,0.5c1.097,1.677,2.194,3.315,3.293,4.914c0.375,0.546,0.149,1.272-0.487,1.626
					c-0.634,0.364-1.454,0.209-1.826-0.335c-1.104-1.608-2.212-3.257-3.313-4.952c-0.36-0.54-0.124-1.258,0.52-1.616
					C847.255,631.117,847.377,631.067,847.504,631.04z M928.088,619.172c0.061-0.014,0.129-0.027,0.191-0.032
					c0.736-0.082,1.371,0.368,1.417,1.014c0.163,1.993,0.282,3.951,0.372,5.872c0.037,0.645-0.535,1.213-1.271,1.281
					c-0.744,0.072-1.361-0.409-1.395-1.05c-0.096-1.898-0.213-3.843-0.368-5.813C926.99,619.867,927.443,619.326,928.088,619.172z
					 M854.22,640.842c0.538-0.122,1.124,0.046,1.428,0.463c1.177,1.641,2.355,3.234,3.525,4.783
					c0.397,0.527,0.216,1.258-0.404,1.632c-0.626,0.386-1.449,0.268-1.851-0.25c-1.182-1.567-2.367-3.181-3.555-4.819
					c-0.379-0.536-0.182-1.272,0.45-1.641C853.945,640.941,854.079,640.879,854.22,640.842z M928.643,630.867
					c0.087-0.018,0.178-0.031,0.273-0.035c0.734-0.051,1.344,0.431,1.354,1.08c0.031,2.017,0.031,3.997,0,5.904
					c-0.019,0.65-0.624,1.19-1.363,1.222c-0.736,0.028-1.326-0.477-1.309-1.121c0.032-1.876,0.032-3.838,0-5.832
					C927.588,631.517,928.033,631.018,928.643,630.867z M861.433,650.363c0.522-0.128,1.083,0.021,1.399,0.417
					c1.27,1.571,2.549,3.12,3.801,4.592c0.43,0.5,0.295,1.24-0.3,1.645c-0.6,0.413-1.435,0.332-1.866-0.163
					c-1.275-1.485-2.566-3.053-3.85-4.656c-0.413-0.509-0.254-1.24,0.357-1.64C861.122,650.463,861.274,650.398,861.433,650.363z
					 M928.41,642.608c0.123-0.026,0.232-0.04,0.36-0.04c0.734-0.005,1.298,0.522,1.263,1.162c-0.123,2.04-0.3,4.038-0.51,5.941
					c-0.072,0.636-0.727,1.145-1.462,1.122c-0.731-0.022-1.272-0.567-1.2-1.218c0.209-1.866,0.383-3.824,0.5-5.827
					C927.398,643.209,927.84,642.75,928.41,642.608z M869.262,659.479c0.488-0.118,1.02,0,1.344,0.359
					c1.396,1.508,2.791,2.966,4.165,4.319c0.476,0.468,0.404,1.213-0.163,1.657c-0.566,0.445-1.408,0.428-1.878-0.045
					c-1.396-1.386-2.821-2.853-4.235-4.383c-0.453-0.495-0.349-1.24,0.242-1.663C868.896,659.605,869.076,659.52,869.262,659.479z
					 M927.063,654.351c0.154-0.036,0.326-0.05,0.494-0.032c0.731,0.06,1.223,0.636,1.109,1.281
					c-0.369,2.066-0.805,4.057-1.295,5.909c-0.168,0.641-0.891,1.063-1.608,0.95c-0.713-0.109-1.163-0.709-0.995-1.354
					c0.479-1.79,0.904-3.729,1.264-5.736C926.117,654.873,926.541,654.487,927.063,654.351z M877.893,668
					c0.443-0.101,0.929-0.014,1.266,0.281c1.555,1.395,3.125,2.698,4.646,3.883c0.535,0.409,0.559,1.154,0.057,1.654
					c-0.512,0.49-1.35,0.559-1.891,0.141c-1.566-1.213-3.172-2.549-4.768-3.979c-0.504-0.445-0.476-1.19,0.063-1.663
					C877.449,668.168,877.66,668.063,877.893,668z M923.93,665.905c0.234-0.059,0.49-0.059,0.734,0.005
					c0.69,0.173,1.059,0.822,0.818,1.449c-0.818,2.08-1.736,3.988-2.753,5.682c-0.346,0.586-1.159,0.841-1.809,0.563
					c-0.649-0.268-0.89-0.963-0.54-1.558c0.939-1.576,1.812-3.375,2.576-5.337C923.115,666.306,923.492,666.02,923.93,665.905z
					 M887.65,675.513c0.375-0.096,0.789-0.046,1.121,0.163c1.813,1.168,3.607,2.176,5.342,2.989c0.627,0.305,0.83,1.008,0.453,1.585
					c-0.379,0.581-1.203,0.8-1.834,0.495c-1.826-0.868-3.715-1.917-5.623-3.14c-0.576-0.377-0.678-1.104-0.223-1.639
					C887.09,675.744,887.359,675.58,887.65,675.513z M899.137,680.804c0.236-0.059,0.49-0.063,0.736,0.01
					c2.125,0.544,4.174,0.786,6.081,0.722c0.741-0.022,1.331,0.477,1.313,1.122c-0.01,0.649-0.627,1.19-1.363,1.226
					c-2.193,0.083-4.528-0.199-6.922-0.826c-0.699-0.177-1.063-0.826-0.818-1.453C898.328,681.204,898.701,680.913,899.137,680.804z
					 M917.45,676.394c0.409-0.101,0.854-0.032,1.192,0.227c0.539,0.414,0.57,1.154,0.062,1.649
					c-1.725,1.722-3.661,3.062-5.751,3.997c-0.672,0.3-1.466,0.087-1.771-0.495c-0.303-0.572,0-1.28,0.664-1.581
					c1.771-0.785,3.42-1.935,4.91-3.42C916.951,676.579,917.191,676.457,917.45,676.394z"/>
			</g>
			<path fill="#333333" d="M893.005,522.015c20.813,55.542,20.966,106.155,0.337,113.049c-20.634,6.899-54.238-32.531-75.057-88.067
				c-20.818-55.537-20.966-106.146-0.334-113.045C838.581,427.062,872.184,466.479,893.005,522.015z"/>
			<path fill="#292929" d="M893.342,635.064c5.396-1.799,9.361-6.627,11.912-13.717c-18.94-11.283-41.274-43.478-56.648-84.484
				c-15.375-40.997-19.463-79.301-12.255-99.323c-6.711-4.001-13.001-5.391-18.4-3.588c-20.632,6.899-20.484,57.508,0.334,113.045
				C839.104,602.533,872.708,641.964,893.342,635.064z"/>
		</g>
	</g>
	<g>
		<path fill="#333333" d="M436.598,642.383c11.852-26.845,31.083-52.84,53.561-72.395c91.533,62.757,183.064,125.513,274.593,188.27
			c-11.846,26.84-31.082,52.83-53.566,72.385C619.654,767.892,528.131,705.134,436.598,642.383z"/>
	</g>
	<path fill="#333333" d="M662.682,616.513c75.831,51.982,121.042,116.109,100.984,143.217
		c-20.063,27.106-97.788,6.933-173.616-45.054c-75.824-51.982-121.039-116.104-100.974-143.212
		C509.132,544.354,586.862,564.525,662.682,616.513z"/>
	<path fill="#1A1A1A" d="M610.21,687.432c75.83,51.986,121.035,116.101,100.976,143.211c-20.06,27.107-97.783,6.943-173.612-45.043
		c-75.825-51.987-121.039-116.11-100.976-143.217C456.656,615.267,534.382,635.439,610.21,687.432z"/>
	<g>
		<path fill="#E2E3E4" d="M427.394,677.177c-28.19,38.337-29.19,99.354,1.345,128.286c38.472,33.429,79.521,61.566,124.915,85.639
			c38.375,18.327,97.968-2.54,126.384-40.703c5.478-7.41,8.219-11.109,13.696-18.516c-69.196-78.968-152.506-136.08-252.648-173.221
			C435.61,666.068,432.866,669.771,427.394,677.177z"/>
	</g>
	<path fill="#E2E3E4" d="M601.569,698.469c70.163,48.102,111.991,107.434,93.432,132.514c-18.559,25.084-90.478,6.43-160.639-41.676
		c-70.158-48.103-111.993-107.434-93.429-132.523C459.489,631.7,531.413,650.366,601.569,698.469z"/>
	<path fill="#333333" d="M372.565,244.709l-165.94,95.517l-75.248,71.461l0.382,38.894c0,0,51.358-2.452,62.073,7.227
		c10.717,9.679,44.944-39.898,44.944-39.898l302.125-75.141L540.97,225.4L372.565,244.709z"/>
	<g>
		<path fill="#3D3D3D" d="M131.76,409.739c1.885-7.231,4.324-14.349,7.26-21.349c1.594-5.841,3.573-11.632,5.95-17.355
			c16.667-40.152,51.571-76.24,100.958-104.365c0.006,0,0.011-0.004,0.016-0.008c51.015-29.048,116.349-48.992,188.94-57.677
			c7.395-0.886,14.845-1.648,22.334-2.29c12.529-1.657,25.251-3.021,38.176-4.047c6.6-0.495,14.021,0.027,20.37,1.585
			c0,0,25.728,6.229,25.206,21.166c-0.004,0.138-0.034,0.265-0.068,0.422c-2.088,9.726-18.493,15.743-34.279,16.825
			c-158.173,12.931-281.186,82.984-305.759,174.132c-2.087,9.093-12.897,18.251-29.608,19.559c-0.202,0.009-0.368,0.013-0.554,0.022
			l-36.558-14.957C131.598,417.747,130.829,413.5,131.76,409.739z"/>
	</g>
	<path fill="#E8E7DE" d="M143.6,545.74l-1.687-12.873l35.154,3.016c0,0,0.899,15.525,1.344,19.113S143.6,545.74,143.6,545.74z"/>
	<polygon fill="#D9D8CF" points="141.913,532.867 141.977,541.555 143.112,542.02 	"/>
	<path fill="#CCCCCC" d="M532.824,769.773c44.224,39.524,67.864,84.278,52.794,99.965c-15.069,15.691-63.142-3.625-107.369-43.143
		c-44.227-39.519-67.859-84.271-52.79-99.963C440.53,710.951,488.595,730.256,532.824,769.773z"/>
	<path fill="#C2C2C2" d="M490.728,814.117c-38.454-34.359-61.323-72.666-56.738-92.397c-3.286,0.866-6.051,2.349-8.153,4.536
		c-15.069,15.691,8.563,60.443,52.79,99.963c44.228,39.518,92.299,58.834,107.368,43.142c1.968-2.048,3.259-4.601,3.947-7.561
		C569.669,867.145,528.784,848.122,490.728,814.117z"/>
	<g>
		<path fill="#D2D3D4" d="M666.732,846.087c4.688,2.636,61.879,23.404,64.706,19.581c3.222-4.775,5.814-9.766,7.892-15.189
			c1.529-4.557-51.962-32.449-56.634-35.112c-0.906-0.513-1.359-0.771-2.266-1.282c-7.908,8.846-13.171,18.977-15.962,30.721
			C665.374,845.316,665.827,845.574,666.732,846.087z"/>
	</g>
	<path fill="#D2D3D4" d="M666.729,826.254c4.433-8.531,10.514-14.038,13.582-12.3c3.069,1.737,1.964,10.062-2.469,18.593
		s-10.515,14.039-13.584,12.301C661.19,843.11,662.296,834.785,666.729,826.254z"/>
</g>
</svg>
