<?xml version="1.0" encoding="UTF-8" standalone="no"?>
<svg
   xmlns:dc="http://purl.org/dc/elements/1.1/"
   xmlns:cc="http://creativecommons.org/ns#"
   xmlns:rdf="http://www.w3.org/1999/02/22-rdf-syntax-ns#"
   xmlns:svg="http://www.w3.org/2000/svg"
   xmlns="http://www.w3.org/2000/svg"
   xmlns:sodipodi="http://sodipodi.sourceforge.net/DTD/sodipodi-0.dtd"
   xmlns:inkscape="http://www.inkscape.org/namespaces/inkscape"
   version="1.1"
   id="Layer_1"
   x="0px"
   y="0px"
   width="1166.561"
   height="841.30402"
   viewBox="0 0 1166.561 841.30402"
   enable-background="new 0 0 9.001 3"
   xml:space="preserve"
   sodipodi:docname="record-stack [Converted].svg"
   inkscape:version="1.0.1 (3bc2e813f5, 2020-09-07)"><metadata
   id="metadata177"><rdf:RDF><cc:Work
       rdf:about=""><dc:format>image/svg+xml</dc:format><dc:type
         rdf:resource="http://purl.org/dc/dcmitype/StillImage" /><dc:title></dc:title></cc:Work></rdf:RDF></metadata><defs
   id="defs175" /><sodipodi:namedview
   pagecolor="#ffffff"
   bordercolor="#666666"
   borderopacity="1"
   objecttolerance="10"
   gridtolerance="10"
   guidetolerance="10"
   inkscape:pageopacity="0"
   inkscape:pageshadow="2"
   inkscape:window-width="1920"
   inkscape:window-height="1017"
   id="namedview173"
   showgrid="false"
   fit-margin-top="0"
   fit-margin-left="0"
   fit-margin-right="0"
   fit-margin-bottom="0"
   inkscape:zoom="0.48084933"
   inkscape:cx="595.33219"
   inkscape:cy="376.61244"
   inkscape:window-x="-8"
   inkscape:window-y="-8"
   inkscape:window-maximized="1"
   inkscape:current-layer="g1264" />















<g
   id="g1264"
   transform="translate(1524.998,1645.273)"><path
     id="rect1002"
     style="opacity:0;fill:#e2e3e4"
     d="M -1549.3311,-1900.234 H -316.20703 V -666.46204 H -1549.3311 Z" /><g
     id="g1016">
	<g
   id="g1006">
		<path
   id="polygon1004"
   style="fill:#333333"
   d="m -1524.998,-1142.234 11.923,-5.083 1137.744,0.417 14.434,4.916 -579.3,338.015 z" />
	</g>
	<g
   id="g1010">
		<path
   id="polygon1008"
   style="fill:#f6b319"
   d="m -1516.804,-1143.728 v -12.172 l 1145.752,-10e-4 v 12.172 l -572.874,330.76 z" />
	</g>
	<g
   id="g1014">
		<path
   id="polygon1012"
   style="fill:#ffcd31"
   d="m -1516.804,-1155.9 572.876,-330.76 572.876,330.759 -572.874,330.759 z" />
	</g>
</g><g
     id="g1026">
	<g
   id="g1020">
		<path
   id="polygon1018"
   style="fill:#6b4b2c"
   d="m -1517.915,-1158.008 v -12.172 h 1145.752 v 12.173 l -572.873,330.76 z" />
	</g>
	<g
   id="g1024">
		<path
   id="polygon1022"
   style="fill:#7f5e39"
   d="m -1517.915,-1170.18 572.876,-330.759 572.876,330.757 -572.873,330.76 z" />
	</g>
</g><g
     id="g1036">
	<g
   id="g1030">
		<path
   id="polygon1028"
   style="fill:#399f49"
   d="m -1514.741,-1169.114 v -12.173 l 1145.752,-10e-4 v 12.173 l -572.874,330.76 z" />
	</g>
	<g
   id="g1034">
		<path
   id="polygon1032"
   style="fill:#84ba4d"
   d="m -1514.741,-1181.287 572.876,-330.759 572.876,330.758 -572.874,330.76 z" />
	</g>
</g><g
     id="g1046">
	<g
   id="g1040">
		<path
   id="polygon1038"
   style="fill:#41553d"
   d="m -1515.535,-1183.87 v -12.173 h 1145.752 v 12.173 l -572.873,330.76 z" />
	</g>
	<g
   id="g1044">
		<path
   id="polygon1042"
   style="fill:#59644a"
   d="m -1515.535,-1196.043 572.876,-330.759 572.876,330.758 -572.873,330.76 z" />
	</g>
</g><g
     id="g1056">
	<g
   id="g1050">
		<path
   id="polygon1048"
   style="fill:#a6191e"
   d="m -1506.649,-1194.024 v -12.173 h 1145.752 v 12.172 l -572.874,330.759 z" />
	</g>
	<g
   id="g1054">
		<path
   id="polygon1052"
   style="fill:#c61e24"
   d="m -1506.649,-1206.197 572.876,-330.76 572.876,330.759 -572.874,330.759 z" />
	</g>
</g><g
     id="g1066">
	<g
   id="g1060">
		<path
   id="polygon1058"
   style="fill:#a65b2f"
   d="m -1510.104,-1213.064 v -12.173 l 1145.753,-10e-4 v 12.172 l -572.875,330.759 z" />
	</g>
	<g
   id="g1064">
		<path
   id="polygon1062"
   style="fill:#dc752f"
   d="m -1510.104,-1225.237 572.875,-330.76 572.878,330.759 -572.875,330.759 z" />
	</g>
</g><g
     id="g1076">
	<g
   id="g1070">
		<path
   id="polygon1068"
   style="fill:#f6b319"
   d="m -1514.344,-1233.004 v -12.172 h 1145.752 v 12.173 l -572.874,330.76 z" />
	</g>
	<g
   id="g1074">
		<path
   id="polygon1072"
   style="fill:#ffcd31"
   d="m -1514.344,-1245.176 572.876,-330.76 572.876,330.758 -572.874,330.76 z" />
	</g>
</g><g
     id="g1086">
	<g
   id="g1080">
		<path
   id="polygon1078"
   style="fill:#6b4b2c"
   d="m -1515.455,-1247.283 v -12.173 h 1145.753 v 12.172 l -572.874,330.76 z" />
	</g>
	<g
   id="g1084">
		<path
   id="polygon1082"
   style="fill:#7f5e39"
   d="m -1515.455,-1259.456 572.876,-330.76 572.877,330.759 -572.874,330.759 z" />
	</g>
</g><g
     id="g1096">
	<g
   id="g1090">
		<path
   id="polygon1088"
   style="fill:#399f49"
   d="m -1512.281,-1258.391 v -12.172 l 1145.752,-10e-4 v 12.172 l -572.874,330.76 z" />
	</g>
	<g
   id="g1094">
		<path
   id="polygon1092"
   style="fill:#84ba4d"
   d="m -1512.281,-1270.563 572.876,-330.759 572.876,330.758 -572.874,330.759 z" />
	</g>
</g><g
     id="g1106">
	<g
   id="g1100">
		<path
   id="polygon1098"
   style="fill:#2c285d"
   d="m -1513.075,-1273.146 v -12.173 l 1145.753,-10e-4 v 12.173 l -572.874,330.759 z" />
	</g>
	<g
   id="g1104">
		<path
   id="polygon1102"
   style="fill:#46408a"
   d="m -1513.075,-1285.319 572.876,-330.76 572.877,330.759 -572.874,330.759 z" />
	</g>
</g><g
     id="g1116">
	<g
   id="g1110">
		<path
   id="polygon1108"
   style="fill:#ad123c"
   d="m -1504.189,-1283.301 v -12.173 l 1145.752,-10e-4 v 12.173 l -572.874,330.759 z" />
	</g>
	<g
   id="g1114">
		<path
   id="polygon1112"
   style="fill:#da1f47"
   d="m -1504.189,-1295.474 572.876,-330.759 572.876,330.758 -572.874,330.76 z" />
	</g>
</g><g
     id="g1126">
	<g
   id="g1120">
		<path
   id="polygon1118"
   style="fill:#f6b319"
   d="m -1507.644,-1302.341 v -12.173 h 1145.752 v 12.173 l -572.874,330.759 z" />
	</g>
	<g
   id="g1124">
		<path
   id="polygon1122"
   style="fill:#ffcd31"
   d="m -1507.644,-1314.514 572.876,-330.759 572.876,330.758 -572.874,330.76 z" />
	</g>
</g><g
     id="g1148">
	<path
   fill="#333333"
   d="m -655.175,-1458.61 c 149.475,86.304 149.478,226.231 0,312.534 -149.48,86.305 -391.83,86.305 -541.308,10e-4 -149.481,-86.304 -149.479,-226.23 -10e-4,-312.533 149.476,-86.304 391.828,-86.304 541.309,0 z"
   id="path1128" />
	<path
   fill="#333333"
   d="m -660.657,-1465.704 c 149.475,86.305 149.478,226.231 0,312.533 -149.48,86.306 -391.831,86.306 -541.308,0 -149.482,-86.304 -149.48,-226.23 0,-312.533 149.477,-86.304 391.828,-86.304 541.31,0 z"
   id="path1130" />
	<path
   fill="#1a1a1a"
   d="m -660.657,-1470.781 c 149.475,86.304 149.478,226.231 0,312.533 -149.48,86.305 -391.831,86.305 -541.308,10e-4 -149.482,-86.303 -149.48,-226.23 0,-312.532 149.477,-86.304 391.828,-86.304 541.31,0 z"
   id="path1132" />
	<path
   fill="none"
   stroke="#333333"
   stroke-width="2"
   stroke-miterlimit="10"
   d="m -687.392,-1455.345 c 134.714,77.778 134.714,203.884 0.002,281.664 -134.714,77.779 -353.13,77.779 -487.842,0 -134.716,-77.78 -134.716,-203.883 0,-281.664 134.715,-77.78 353.129,-77.78 487.844,0 z"
   id="path1134" />
	<path
   fill="none"
   stroke="#333333"
   stroke-width="2"
   stroke-miterlimit="10"
   d="m -721.551,-1435.624 c 115.852,66.887 115.851,175.333 0.002,242.22 -115.848,66.889 -303.678,66.889 -419.526,0 -115.852,-66.887 -115.85,-175.333 0,-242.22 115.849,-66.886 303.68,-66.886 419.527,0 z"
   id="path1136" />
	<path
   fill="none"
   stroke="#333333"
   stroke-width="2"
   stroke-miterlimit="10"
   d="m -758.681,-1414.186 c 95.346,55.047 95.346,144.298 0.003,199.346 -95.343,55.048 -249.925,55.048 -345.268,0 -95.347,-55.048 -95.345,-144.298 0,-199.346 95.345,-55.047 249.927,-55.049 345.268,0 z"
   id="path1138" />
	<path
   fill="none"
   stroke="#333333"
   stroke-width="2"
   stroke-miterlimit="10"
   d="m -803.233,-1388.461 c 70.738,40.84 70.737,107.057 0,147.896 -70.735,40.842 -185.423,40.843 -256.16,0 -70.737,-40.843 -70.737,-107.056 0,-147.896 70.736,-40.841 185.421,-40.843 256.16,0 z"
   id="path1140" />
	<path
   fill="#da1f47"
   d="m -845.553,-1364.03 c 47.367,27.349 47.366,71.687 0.004,99.033 -47.366,27.347 -124.159,27.347 -171.525,0 -47.366,-27.347 -47.366,-71.685 0,-99.033 47.364,-27.346 124.157,-27.346 171.521,0 z"
   id="path1142" />
	<path
   fill="#333333"
   d="m -888.885,-1339.01 c 23.432,13.529 23.432,35.463 10e-4,48.993 -23.433,13.529 -61.424,13.529 -84.856,0 -23.433,-13.529 -23.433,-35.464 0,-48.993 23.431,-13.531 61.422,-13.531 84.855,0 z"
   id="path1144" />
	<path
   fill="#ffffff"
   d="m -921.295,-1320.297 c 5.532,3.193 5.532,8.375 0,11.568 -5.532,3.195 -14.505,3.195 -20.038,0 -5.532,-3.193 -5.532,-8.375 0,-11.568 5.533,-3.196 14.506,-3.196 20.038,0 z"
   id="path1146" />
</g><g
     id="g1170">
	<path
   fill="#333333"
   d="m -643.75,-1508.139 c 149.476,86.304 149.478,226.232 0,312.534 -149.479,86.304 -391.83,86.304 -541.308,0 -149.481,-86.302 -149.479,-226.229 0,-312.532 149.478,-86.304 391.829,-86.304 541.31,0 z"
   id="path1150" />
	<path
   fill="#333333"
   d="m -649.232,-1515.233 c 149.476,86.304 149.478,226.23 0,312.533 -149.48,86.306 -391.83,86.306 -541.308,0 -149.481,-86.305 -149.48,-226.231 0,-312.533 149.477,-86.305 391.828,-86.305 541.31,0 z"
   id="path1152" />
	<path
   fill="#1a1a1a"
   d="m -649.232,-1520.311 c 149.476,86.304 149.478,226.23 0,312.532 -149.48,86.307 -391.83,86.307 -541.308,0 -149.481,-86.305 -149.48,-226.231 0,-312.533 149.477,-86.304 391.828,-86.304 541.31,0 z"
   id="path1154" />
	<path
   fill="none"
   stroke="#333333"
   stroke-width="2"
   stroke-miterlimit="10"
   d="m -675.967,-1504.874 c 134.715,77.778 134.715,203.883 0.003,281.663 -134.715,77.78 -353.13,77.78 -487.843,0 -134.716,-77.78 -134.716,-203.882 0,-281.663 134.715,-77.78 353.129,-77.78 487.844,0 z"
   id="path1156" />
	<path
   fill="none"
   stroke="#333333"
   stroke-width="2"
   stroke-miterlimit="10"
   d="m -710.126,-1485.153 c 115.852,66.887 115.851,175.333 0.003,242.22 -115.848,66.888 -303.679,66.888 -419.526,0 -115.852,-66.887 -115.85,-175.333 0,-242.22 115.849,-66.887 303.679,-66.887 419.527,0 z"
   id="path1158" />
	<path
   fill="none"
   stroke="#333333"
   stroke-width="2"
   stroke-miterlimit="10"
   d="m -747.255,-1463.715 c 95.345,55.047 95.345,144.298 0.002,199.345 -95.342,55.048 -249.925,55.048 -345.268,0 -95.347,-55.047 -95.345,-144.297 0,-199.345 95.345,-55.048 249.926,-55.05 345.269,0 z"
   id="path1160" />
	<path
   fill="none"
   stroke="#333333"
   stroke-width="2"
   stroke-miterlimit="10"
   d="m -791.808,-1437.99 c 70.737,40.84 70.736,107.056 0,147.896 -70.736,40.842 -185.424,40.842 -256.161,0 -70.737,-40.842 -70.737,-107.056 0,-147.896 70.738,-40.842 185.423,-40.843 256.161,0 z"
   id="path1162" />
	<path
   fill="#da1f47"
   d="m -834.128,-1413.56 c 47.367,27.349 47.366,71.687 0.004,99.033 -47.365,27.346 -124.159,27.346 -171.525,0 -47.366,-27.347 -47.366,-71.685 0,-99.033 47.364,-27.346 124.157,-27.346 171.521,0 z"
   id="path1164" />
	<path
   fill="#333333"
   d="m -877.46,-1388.539 c 23.432,13.529 23.432,35.463 0.002,48.992 -23.434,13.53 -61.424,13.53 -84.857,0 -23.433,-13.529 -23.433,-35.463 0,-48.992 23.431,-13.531 61.422,-13.531 84.855,0 z"
   id="path1166" />
	<path
   fill="#ffffff"
   d="m -909.87,-1369.827 c 5.532,3.193 5.532,8.375 0,11.568 -5.532,3.196 -14.506,3.196 -20.036,0 -5.534,-3.193 -5.534,-8.375 0,-11.568 5.53,-3.195 14.504,-3.195 20.036,0 z"
   id="path1168" />
</g></g></svg>
