<?xml version="1.0" encoding="UTF-8" standalone="no"?>
<svg
   xmlns:dc="http://purl.org/dc/elements/1.1/"
   xmlns:cc="http://creativecommons.org/ns#"
   xmlns:rdf="http://www.w3.org/1999/02/22-rdf-syntax-ns#"
   xmlns:svg="http://www.w3.org/2000/svg"
   xmlns="http://www.w3.org/2000/svg"
   xmlns:sodipodi="http://sodipodi.sourceforge.net/DTD/sodipodi-0.dtd"
   xmlns:inkscape="http://www.inkscape.org/namespaces/inkscape"
   width="276.98303mm"
   height="205.72995mm"
   viewBox="0 0 276.98303 205.72995"
   version="1.1"
   id="svg8"
   inkscape:version="1.0.1 (3bc2e813f5, 2020-09-07)"
   sodipodi:docname="turntable2.svg">
  <defs
     id="defs2" />
  <sodipodi:namedview
     id="base"
     pagecolor="#ffffff"
     bordercolor="#666666"
     borderopacity="1.0"
     inkscape:pageopacity="0.0"
     inkscape:pageshadow="2"
     inkscape:zoom="0.35"
     inkscape:cx="697.71821"
     inkscape:cy="951.63816"
     inkscape:document-units="mm"
     inkscape:current-layer="layer1"
     inkscape:document-rotation="0"
     showgrid="false"
     fit-margin-top="0"
     fit-margin-left="0"
     fit-margin-right="0"
     fit-margin-bottom="0"
     inkscape:window-width="1346"
     inkscape:window-height="1040"
     inkscape:window-x="130"
     inkscape:window-y="0"
     inkscape:window-maximized="0" />
  <metadata
     id="metadata5">
    <rdf:RDF>
      <cc:Work
         rdf:about="">
        <dc:format>image/svg+xml</dc:format>
        <dc:type
           rdf:resource="http://purl.org/dc/dcmitype/StillImage" />
        <dc:title></dc:title>
      </cc:Work>
    </rdf:RDF>
  </metadata>
  <g
     inkscape:label="Layer 1"
     inkscape:groupmode="layer"
     id="layer1"
     transform="translate(78.771276,103.62093)">
    <g
       id="g1159"
       transform="matrix(0.26458333,0,0,0.26458333,-81.786732,-196.31479)">
	<g
   id="g1157">
		<path
   display="none"
   fill="#e6e6e6"
   d="m 1069.659,1118.03 c 0,19.438 -15.76,35.193 -35.195,35.193 H 35.193 C 15.757,1153.224 0,1137.468 0,1118.03 V 601.649 c 0,-19.438 15.757,-35.194 35.193,-35.194 h 999.27 c 19.436,0 35.195,15.756 35.195,35.194 v 516.381 z"
   id="path833" />

		<path
   display="none"
   fill="#dedede"
   d="m 1055.581,1105.903 c 0,18.926 -15.342,34.268 -34.268,34.268 H 48.345 c -18.926,0 -34.268,-15.342 -34.268,-34.268 V 603.115 c 0,-18.927 15.342,-34.269 34.268,-34.269 h 972.968 c 18.926,0 34.268,15.342 34.268,34.269 z"
   id="path835" />

		<path
   fill="#1a1a1a"
   d="m 1058.262,1071.558 c 0,19.021 -15.424,34.445 -34.444,34.445 H 45.841 c -19.022,0 -34.444,-15.424 -34.444,-34.445 V 566.181 c 0,-19.024 15.422,-34.444 34.444,-34.444 h 977.977 c 19.021,0 34.444,15.42 34.444,34.444 z"
   id="path837" />

		<path
   fill="#f6b319"
   d="M 1023.818,1015.14 H 45.841 c -19.022,0 -34.444,-15.42 -34.444,-34.441 v 45.566 c 0,19.021 15.422,34.441 34.444,34.441 h 977.977 c 19.021,0 34.444,-15.42 34.444,-34.441 v -45.566 c 0,19.021 -15.424,34.441 -34.444,34.441 z"
   id="path839" />

		<path
   fill="#4d4d4d"
   d="m 1058.262,946.253 c 0,19.021 -15.424,34.445 -34.444,34.445 H 45.841 c -19.022,0 -34.444,-15.424 -34.444,-34.445 V 440.875 c 0,-19.023 15.422,-34.444 34.444,-34.444 h 977.977 c 19.021,0 34.444,15.421 34.444,34.444 z"
   id="path841" />

		<path
   fill="#454545"
   d="m 122.448,693.567 c 0,-138.448 136.662,-250.683 305.241,-250.683 168.581,0 305.244,112.235 305.244,250.683 0,138.444 -136.663,250.674 -305.244,250.674 -168.579,0 -305.241,-112.23 -305.241,-250.674 z"
   id="path843" />

		<ellipse
   cx="427.69101"
   cy="663.64301"
   rx="305.242"
   ry="250.68201"
   id="ellipse845" />

		<rect
   x="122.448"
   y="657.112"
   fill="#454545"
   width="610.48499"
   height="36.455002"
   id="rect847" />

		<ellipse
   fill="#1a1a1a"
   cx="427.69101"
   cy="657.112"
   rx="305.242"
   ry="250.681"
   id="ellipse849" />

		<g
   id="g895">
			<g
   id="g853">
				<path
   fill="#333333"
   d="m 427.689,893.106 c -158.265,0 -287.021,-105.865 -287.021,-235.995 0,-130.13 128.756,-235.999 287.021,-235.999 158.266,0 287.024,105.869 287.024,235.999 0,130.13 -128.757,235.995 -287.024,235.995 z m 0,-468.846 c -156.528,0 -283.874,104.457 -283.874,232.852 0,128.395 127.346,232.85 283.874,232.85 156.53,0 283.875,-104.455 283.875,-232.85 0,-128.395 -127.345,-232.852 -283.875,-232.852 z"
   id="path851" />

			</g>

			<g
   id="g857">
				<path
   fill="#333333"
   d="m 427.858,871.94 c -3.201,0 -6.448,-0.047 -9.656,-0.146 -78.361,-2.34 -150.621,-33.104 -198.253,-84.4 C 183.36,747.983 164.42,698.938 166.62,649.29 c 2.48,-56.012 30.902,-108.241 80.028,-147.063 48.919,-38.657 113.154,-59.946 180.872,-59.946 3.2,0 6.449,0.048 9.656,0.144 78.363,2.341 150.623,33.105 198.251,84.402 36.592,39.411 55.533,88.457 53.332,138.107 -2.479,56.014 -30.901,108.241 -80.029,147.061 -48.919,38.656 -113.153,59.945 -180.872,59.945 z m -0.337,-426.513 c -139.471,0 -252.691,89.608 -257.758,204.001 -2.161,48.8 16.48,97.037 52.494,135.826 47.059,50.68 118.512,81.08 196.041,83.396 3.176,0.094 6.393,0.145 9.561,0.145 139.469,0 252.694,-89.607 257.761,-204 2.159,-48.802 -16.48,-97.04 -52.496,-135.828 -47.059,-50.684 -118.513,-81.082 -196.042,-83.397 -3.175,-0.094 -6.392,-0.143 -9.561,-0.143 z"
   id="path855" />

			</g>

			<g
   id="g861">
				<path
   fill="#333333"
   d="m 427.948,851.122 c -6.379,0 -12.852,-0.217 -19.242,-0.641 -70.479,-4.68 -134.115,-34.746 -174.593,-82.492 -31.194,-36.797 -45.946,-81.735 -41.536,-126.537 4.816,-48.941 31.688,-94.158 75.66,-127.313 43.653,-32.913 100.186,-51.039 159.194,-51.039 6.379,0 12.852,0.215 19.241,0.64 70.479,4.678 134.12,34.744 174.593,82.49 31.198,36.799 45.95,81.738 41.538,126.54 -4.817,48.941 -31.686,94.157 -75.659,127.311 -43.653,32.914 -100.188,51.041 -159.196,51.041 z m -0.517,-384.875 c -120.251,0 -222.035,77.096 -231.725,175.514 -4.324,43.947 10.168,88.052 40.807,124.195 39.931,47.098 102.768,76.762 172.401,81.385 6.321,0.418 12.726,0.633 19.034,0.633 120.253,0 222.038,-77.092 231.726,-175.512 4.324,-43.947 -10.167,-88.053 -40.809,-124.197 -39.93,-47.099 -102.767,-76.763 -172.401,-81.386 -6.32,-0.42 -12.725,-0.632 -19.033,-0.632 z"
   id="path859" />

			</g>

			<g
   id="g865">
				<path
   fill="#333333"
   d="m 427.954,830.772 c -9.551,0 -19.226,-0.543 -28.758,-1.607 -62.511,-7.004 -117.487,-36.318 -150.832,-80.426 -25.88,-34.232 -36.473,-75.125 -29.824,-115.142 6.959,-41.891 32.174,-80.171 71.004,-107.791 38.402,-27.315 87.368,-42.358 137.881,-42.358 9.551,0 19.227,0.542 28.758,1.61 62.512,7.003 117.487,36.316 150.835,80.425 25.879,34.232 36.471,75.124 29.822,115.143 -6.957,41.891 -32.172,80.172 -71.002,107.792 -38.401,27.311 -87.37,42.354 -137.884,42.354 z m -0.529,-344.178 c -103.346,0 -191.813,63.42 -205.781,147.52 -6.504,39.157 3.876,79.192 29.229,112.729 32.827,43.422 87.017,72.288 148.674,79.194 9.415,1.057 18.974,1.59 28.407,1.59 103.349,0 191.818,-63.416 205.783,-147.516 6.506,-39.159 -3.873,-79.192 -29.23,-112.732 -32.826,-43.422 -87.016,-72.287 -148.673,-79.195 -9.417,-1.055 -18.976,-1.59 -28.409,-1.59 z"
   id="path863" />

			</g>

			<g
   id="g869">
				<path
   fill="#333333"
   d="m 427.878,811.081 c -12.756,0 -25.611,-1.09 -38.211,-3.242 -54.434,-9.291 -100.714,-37.768 -126.975,-78.125 -20.661,-31.746 -27.115,-68.678 -18.178,-103.997 8.828,-34.875 32.246,-66.337 65.943,-88.596 33.175,-21.913 74.741,-33.981 117.043,-33.981 12.755,0 25.611,1.09 38.213,3.242 54.434,9.292 100.716,37.767 126.976,78.125 20.658,31.749 27.113,68.682 18.175,104 -8.829,34.875 -32.245,66.338 -65.944,88.596 -33.173,21.91 -74.739,33.978 -117.042,33.978 z m -0.377,-304.796 c -86.631,0 -162.305,50.552 -179.936,120.203 -8.721,34.458 -2.412,70.506 17.764,101.51 25.784,39.625 71.296,67.598 124.865,76.743 12.428,2.121 25.105,3.195 37.684,3.195 86.634,0 162.308,-50.553 179.937,-120.202 8.722,-34.458 2.412,-70.511 -17.764,-101.514 -25.783,-39.623 -71.297,-67.594 -124.867,-76.738 -12.427,-2.122 -25.105,-3.197 -37.683,-3.197 z"
   id="path867" />

			</g>

			<g
   id="g873">
				<path
   fill="#333333"
   d="m 427.75,792.333 c -16.077,0 -32.104,-1.961 -47.638,-5.83 -46.211,-11.504 -83.779,-39.014 -103.068,-75.475 -15.551,-29.395 -17.869,-62.5 -6.529,-93.222 10.457,-28.329 31.308,-52.496 60.297,-69.887 27.984,-16.785 62.367,-26.03 96.818,-26.03 16.077,0 32.105,1.961 47.637,5.828 46.213,11.505 83.781,39.014 103.07,75.475 15.551,29.394 17.871,62.504 6.529,93.225 -10.457,28.328 -31.307,52.494 -60.297,69.883 -27.986,16.785 -62.369,26.033 -96.819,26.033 z m -0.12,-267.299 c -70.371,0 -133.766,38.596 -154.164,93.86 -11.026,29.872 -8.768,62.071 6.359,90.661 18.871,35.674 55.702,62.608 101.046,73.895 15.286,3.807 31.058,5.738 46.879,5.738 70.372,0 133.766,-38.6 154.165,-93.86 11.028,-29.873 8.77,-62.073 -6.357,-90.665 -18.873,-35.673 -55.703,-62.606 -101.049,-73.895 -15.286,-3.804 -31.059,-5.734 -46.879,-5.734 z"
   id="path871" />

			</g>

			<g
   id="g877">
				<path
   fill="#333333"
   d="m 427.616,774.979 c -19.688,0 -38.897,-3.311 -57.096,-9.832 -37.834,-13.563 -66.719,-39.922 -79.246,-72.321 -10.545,-27.262 -8.67,-56.729 5.277,-82.968 22.803,-42.897 74.307,-70.616 131.213,-70.616 19.688,0 38.898,3.307 57.095,9.831 37.834,13.563 66.718,39.922 79.247,72.321 10.543,27.262 8.67,56.727 -5.275,82.967 -22.805,42.901 -74.309,70.618 -131.215,70.618 z m 0.149,-232.59 c -55.76,0 -106.172,27.062 -128.436,68.947 -13.512,25.421 -15.33,53.959 -5.12,80.358 12.198,31.545 40.399,57.236 77.374,70.493 17.855,6.402 36.707,9.646 56.033,9.646 55.76,0 106.172,-27.065 128.432,-68.946 13.513,-25.424 15.331,-53.96 5.125,-80.359 -12.2,-31.546 -40.403,-57.239 -77.377,-70.494 -17.855,-6.402 -36.707,-9.645 -56.031,-9.645 z"
   id="path875" />

			</g>

			<g
   id="g881">
				<path
   fill="#333333"
   d="m 427.573,759.747 c -23.607,0 -46.67,-5.531 -66.688,-15.999 -29.346,-15.34 -49.703,-40.309 -55.856,-68.504 -5.558,-25.48 0.698,-51.535 17.618,-73.363 23.012,-29.688 62.322,-47.409 105.16,-47.409 23.608,0 46.669,5.532 66.688,15.998 29.346,15.341 49.703,40.311 55.857,68.504 5.557,25.481 -0.697,51.536 -17.62,73.366 -23.01,29.684 -62.32,47.407 -105.159,47.407 z m 0.235,-202.128 c -41.871,0 -80.256,17.267 -102.674,46.189 -16.342,21.08 -22.387,46.211 -17.029,70.764 5.951,27.283 25.721,51.48 54.237,66.389 19.573,10.233 42.13,15.641 65.231,15.641 41.871,0 80.255,-17.268 102.674,-46.188 16.337,-21.082 22.388,-46.215 17.031,-70.769 -5.953,-27.282 -25.724,-51.479 -54.24,-66.386 -19.572,-10.233 -42.128,-15.64 -65.23,-15.64 z"
   id="path879" />

			</g>

			<g
   id="g885">
				<path
   fill="#333333"
   d="m 427.681,747.754 c -28.697,0 -55.862,-9.049 -76.487,-25.48 -21.257,-16.934 -33.163,-39.682 -33.526,-64.051 -0.362,-24.169 10.705,-47.014 31.156,-64.331 20.891,-17.687 48.904,-27.426 78.878,-27.426 28.697,0 55.86,9.048 76.485,25.479 21.257,16.933 33.164,39.681 33.527,64.051 0.361,24.169 -10.703,47.017 -31.158,64.332 -20.89,17.686 -48.903,27.426 -78.875,27.426 z m 0.02,-178.144 c -29.229,0 -56.522,9.478 -76.845,26.682 -19.721,16.696 -30.391,38.674 -30.044,61.882 0.349,23.412 11.834,45.303 32.341,61.639 20.069,15.99 46.539,24.795 74.527,24.795 29.229,0 56.521,-9.475 76.841,-26.68 19.724,-16.697 30.393,-38.672 30.047,-61.883 -0.35,-23.412 -11.833,-45.302 -32.341,-61.639 -20.072,-15.988 -46.538,-24.796 -74.526,-24.796 z"
   id="path883" />

			</g>

			<g
   id="g889">
				<path
   fill="#333333"
   d="m 427.786,740.454 c -35.518,0 -67.785,-14.873 -86.314,-39.783 -13.283,-17.855 -17.91,-39.004 -13.031,-59.55 5.443,-22.93 22.444,-43.045 46.643,-55.186 15.868,-7.961 34.027,-12.168 52.513,-12.168 35.517,0 67.784,14.872 86.313,39.782 13.283,17.856 17.911,39.004 13.033,59.549 -5.446,22.934 -22.449,43.047 -46.648,55.189 -15.866,7.96 -34.023,12.167 -52.509,12.167 z m -0.19,-163.542 c -17.999,0 -35.67,4.093 -51.103,11.835 -23.365,11.723 -39.764,31.076 -44.994,53.1 -4.658,19.626 -0.221,39.849 12.498,56.947 17.938,24.117 49.261,38.516 83.789,38.516 17.998,0 35.668,-4.092 51.099,-11.834 23.366,-11.723 39.767,-31.078 44.997,-53.102 4.659,-19.625 0.221,-39.851 -12.497,-56.947 -17.939,-24.115 -49.261,-38.515 -83.789,-38.515 z"
   id="path887" />

			</g>

			<g
   id="g893">
				<path
   fill="#333333"
   d="m 427.634,739.102 c -44.563,0 -83.971,-24.746 -95.831,-60.182 -6.266,-18.717 -4.264,-38.71 5.641,-56.293 12.354,-21.94 35.664,-38.189 63.948,-44.573 8.627,-1.947 17.494,-2.936 26.354,-2.936 44.566,0 83.973,24.749 95.833,60.181 6.265,18.72 4.264,38.709 -5.637,56.295 -12.356,21.939 -35.667,38.186 -63.956,44.572 -8.627,1.948 -17.492,2.936 -26.352,2.936 z m 0.111,-160.837 c -8.627,0 -17.259,0.962 -25.657,2.856 -27.422,6.191 -49.983,21.882 -61.905,43.049 -9.461,16.799 -11.377,35.889 -5.397,53.754 11.438,34.168 49.618,58.031 92.849,58.031 8.626,0 17.26,-0.961 25.66,-2.857 27.422,-6.191 49.984,-21.881 61.904,-43.049 9.461,-16.799 11.376,-35.887 5.396,-53.75 -11.438,-34.17 -49.617,-58.034 -92.85,-58.034 z"
   id="path891" />

			</g>

		</g>

		<ellipse
   fill="#f6b319"
   cx="427.69"
   cy="657.10999"
   rx="109.197"
   ry="89.678001"
   id="ellipse897" />

		<path
   fill="#ffcd31"
   d="m 342.718,657.11 c 0,-38.542 38.045,-69.785 84.972,-69.785 46.931,0 84.976,31.242 84.976,69.785 0,38.541 -38.045,69.783 -84.976,69.783 -46.927,0 -84.972,-31.242 -84.972,-69.783 z"
   id="path899" />

		<ellipse
   fill="#333333"
   cx="427.69101"
   cy="652.86102"
   rx="10.417"
   ry="8.5550003"
   id="ellipse901" />

		<rect
   x="417.27399"
   y="636.90997"
   fill="#333333"
   width="20.833"
   height="15.951"
   id="rect903" />

		<ellipse
   fill="#454545"
   cx="975.71997"
   cy="594.44098"
   rx="26.438"
   ry="21.712999"
   id="ellipse905" />

		<ellipse
   fill="#333333"
   cx="427.69101"
   cy="636.90997"
   rx="10.417"
   ry="8.5539999"
   id="ellipse907" />

		<ellipse
   fill="#333333"
   cx="975.71802"
   cy="594.44098"
   rx="19.049999"
   ry="15.644"
   id="ellipse909" />

		<rect
   x="956.66803"
   y="565.27698"
   fill="#333333"
   width="38.099998"
   height="29.164"
   id="rect911" />

		<path
   fill="#454545"
   d="m 956.668,565.277 c 0,-8.642 8.529,-15.646 19.053,-15.646 10.521,0 19.047,7.005 19.047,15.646 0,8.638 -8.525,15.644 -19.047,15.644 -10.523,0 -19.053,-7.006 -19.053,-15.644 z"
   id="path913" />

		<ellipse
   fill="#454545"
   cx="975.71997"
   cy="514.95398"
   rx="26.438"
   ry="21.712"
   id="ellipse915" />

		<path
   fill="#454545"
   d="m 762.461,559.101 c 0,-37.03 36.549,-67.044 81.639,-67.044 45.092,0 81.637,30.014 81.637,67.044 0,37.026 -36.545,67.044 -81.637,67.044 -45.09,0 -81.639,-30.018 -81.639,-67.044 z"
   id="path917" />

		<path
   fill="#333333"
   d="m 844.1,498.232 c 43.83,0 79.574,28.36 81.541,63.957 0.057,-1.023 0.096,-2.053 0.096,-3.088 0,-37.03 -36.545,-67.044 -81.637,-67.044 -45.09,0 -81.639,30.014 -81.639,67.044 0,1.035 0.041,2.064 0.096,3.088 1.965,-35.597 37.715,-63.957 81.543,-63.957 z"
   id="path919" />

		<ellipse
   fill="#333333"
   cx="808.40503"
   cy="559.10101"
   rx="18.239"
   ry="14.977"
   id="ellipse921" />

		<ellipse
   fill="#333333"
   cx="879.79303"
   cy="559.10101"
   rx="18.238001"
   ry="14.977"
   id="ellipse923" />

		<ellipse
   fill="#333333"
   cx="975.71802"
   cy="514.95398"
   rx="19.049999"
   ry="15.645"
   id="ellipse925" />

		<rect
   x="956.66803"
   y="485.789"
   fill="#333333"
   width="38.099998"
   height="29.166"
   id="rect927" />

		<ellipse
   fill="#454545"
   cx="975.71802"
   cy="485.789"
   rx="19.049999"
   ry="15.645"
   id="ellipse929" />

		<circle
   fill="#333333"
   cx="845.61902"
   cy="424.82401"
   r="74.485001"
   id="circle931" />

		<rect
   x="771.133"
   y="421.11301"
   fill="#333333"
   width="148.97099"
   height="45.335999"
   id="rect933" />

		<circle
   fill="#1a1a1a"
   cx="845.61902"
   cy="466.44901"
   r="74.485001"
   id="circle935" />

		<circle
   fill="#333333"
   cx="844.099"
   cy="466.44901"
   r="23.754999"
   id="circle937" />

		<rect
   x="790.17999"
   y="466.44901"
   fill="#333333"
   width="36.452999"
   height="92.651001"
   id="rect939" />

		<rect
   x="861.56702"
   y="466.44901"
   fill="#333333"
   width="36.452999"
   height="92.651001"
   id="rect941" />

		<rect
   x="767.17297"
   y="756.80402"
   fill="#454545"
   width="10.935"
   height="28.059"
   id="rect943" />

		<rect
   x="799.06897"
   y="756.80402"
   fill="#454545"
   width="10.934"
   height="28.059"
   id="rect945" />

		<rect
   x="767.17297"
   y="772.64001"
   fill="#333333"
   width="10.935"
   height="19.693001"
   id="rect947" />

		<rect
   x="799.06897"
   y="772.64001"
   fill="#333333"
   width="10.934"
   height="19.693001"
   id="rect949" />

		<g
   id="g953">
			<path
   fill="#1a1a1a"
   d="m 788.661,888.716 c -5.873,0 -10.633,-4.758 -10.633,-10.631 V 695.153 c 0,-23.451 17.203,-42.528 38.352,-42.528 9.264,0 17.088,-9.739 17.088,-21.266 V 472.593 c 0,-5.873 4.758,-10.632 10.633,-10.632 5.869,0 10.633,4.76 10.633,10.632 v 158.766 c 0,23.451 -17.207,42.53 -38.354,42.53 -9.262,0 -17.086,9.736 -17.086,21.264 v 182.932 c -10e-4,5.873 -4.764,10.631 -10.633,10.631 z"
   id="path951" />

		</g>

		<rect
   x="826.633"
   y="508.95599"
   fill="#454545"
   width="34.933998"
   height="10.632"
   id="rect955" />

		<polygon
   fill="#454545"
   points="804.903,809.921 854.733,809.921 854.733,812.938 804.903,815.952 "
   id="polygon957" />

		<g
   id="g961">
			<path
   fill="#666666"
   d="m 788.661,882.571 c -5.873,0 -10.633,-4.756 -10.633,-10.631 V 689.01 c 0,-23.451 17.203,-42.529 38.352,-42.529 9.264,0 17.088,-9.74 17.088,-21.265 V 466.449 c 0,-5.873 4.758,-10.632 10.633,-10.632 5.869,0 10.633,4.76 10.633,10.632 v 158.768 c 0,23.45 -17.207,42.528 -38.354,42.528 -9.262,0 -17.086,9.736 -17.086,21.266 v 182.93 c -10e-4,5.874 -4.764,10.63 -10.633,10.63 z"
   id="path959" />

		</g>

		<rect
   x="826.633"
   y="490.20499"
   fill="#454545"
   width="34.933998"
   height="10.632"
   id="rect963" />

		<rect
   x="770.91998"
   y="799.909"
   fill="#1a1a1a"
   width="36.275002"
   height="69.967003"
   id="rect965" />

		<polygon
   fill="#333333"
   points="770.92,869.876 807.196,869.876 804.159,891.196 773.958,891.196 "
   id="polygon967" />

		<g
   id="g981">
			<g
   id="g973">
				<ellipse
   fill="#454545"
   cx="796.98999"
   cy="825.59698"
   rx="5.263"
   ry="4.322"
   id="ellipse969" />

				<path
   fill="#333333"
   d="m 796.991,823.476 c 2.441,0 4.488,1.367 5.082,3.221 0.115,-0.354 0.18,-0.721 0.18,-1.1 0,-2.389 -2.355,-4.322 -5.262,-4.322 -2.907,0 -5.264,1.934 -5.264,4.322 0,0.379 0.068,0.746 0.182,1.1 0.591,-1.854 2.639,-3.221 5.082,-3.221 z"
   id="path971" />

			</g>

			<g
   id="g979">
				<ellipse
   fill="#454545"
   cx="781.20697"
   cy="825.59698"
   rx="5.263"
   ry="4.322"
   id="ellipse975" />

				<path
   fill="#333333"
   d="m 781.206,823.476 c 2.441,0 4.49,1.367 5.084,3.221 0.111,-0.354 0.18,-0.721 0.18,-1.1 0,-2.389 -2.357,-4.322 -5.264,-4.322 -2.904,0 -5.262,1.934 -5.262,4.322 0,0.379 0.066,0.746 0.18,1.1 0.593,-1.854 2.64,-3.221 5.082,-3.221 z"
   id="path977" />

			</g>

		</g>

		<g
   id="g987">
			<ellipse
   fill="#454545"
   cx="789.09802"
   cy="814.54999"
   rx="5.2620001"
   ry="4.322"
   id="ellipse983" />

			<path
   fill="#333333"
   d="m 789.098,812.429 c 2.443,0 4.49,1.367 5.082,3.221 0.113,-0.354 0.18,-0.721 0.18,-1.1 0,-2.389 -2.355,-4.322 -5.262,-4.322 -2.907,0 -5.262,1.934 -5.262,4.322 0,0.379 0.065,0.746 0.178,1.1 0.594,-1.854 2.645,-3.221 5.084,-3.221 z"
   id="path985" />

		</g>

		<g
   id="g993">
			<path
   fill="#454545"
   d="m 783.836,858.739 c 0,-2.387 2.355,-4.318 5.262,-4.318 2.907,0 5.262,1.932 5.262,4.318 0,2.389 -2.355,4.322 -5.262,4.322 -2.907,0 -5.262,-1.933 -5.262,-4.322 z"
   id="path989" />

			<path
   fill="#333333"
   d="m 789.098,856.62 c 2.443,0 4.49,1.369 5.082,3.221 0.113,-0.352 0.18,-0.719 0.18,-1.102 0,-2.387 -2.355,-4.318 -5.262,-4.318 -2.907,0 -5.262,1.932 -5.262,4.318 0,0.383 0.065,0.75 0.178,1.102 0.594,-1.852 2.645,-3.221 5.084,-3.221 z"
   id="path991" />

		</g>

		<g
   id="g1007">
			<g
   id="g999">
				<path
   fill="#454545"
   d="m 791.727,847.69 c 0,-2.385 2.357,-4.318 5.264,-4.318 2.907,0 5.262,1.934 5.262,4.318 0,2.389 -2.355,4.324 -5.262,4.324 -2.907,0 -5.264,-1.935 -5.264,-4.324 z"
   id="path995" />

				<path
   fill="#333333"
   d="m 796.991,845.573 c 2.441,0 4.488,1.367 5.082,3.219 0.115,-0.35 0.18,-0.717 0.18,-1.102 0,-2.385 -2.355,-4.318 -5.262,-4.318 -2.907,0 -5.264,1.934 -5.264,4.318 0,0.385 0.068,0.752 0.182,1.102 0.591,-1.852 2.639,-3.219 5.082,-3.219 z"
   id="path997" />

			</g>

			<g
   id="g1005">
				<path
   fill="#454545"
   d="m 775.944,847.69 c 0,-2.385 2.357,-4.318 5.262,-4.318 2.906,0 5.264,1.934 5.264,4.318 0,2.389 -2.357,4.324 -5.264,4.324 -2.905,10e-4 -5.262,-1.935 -5.262,-4.324 z"
   id="path1001" />

				<path
   fill="#333333"
   d="m 781.206,845.573 c 2.441,0 4.49,1.367 5.084,3.219 0.111,-0.35 0.18,-0.717 0.18,-1.102 0,-2.385 -2.357,-4.318 -5.264,-4.318 -2.904,0 -5.262,1.934 -5.262,4.318 0,0.385 0.066,0.752 0.18,1.102 0.593,-1.852 2.64,-3.219 5.082,-3.219 z"
   id="path1003" />

			</g>

		</g>

		<g
   id="g1013">
			<path
   fill="#454545"
   d="m 783.836,836.644 c 0,-2.385 2.355,-4.318 5.262,-4.318 2.907,0 5.262,1.934 5.262,4.318 0,2.389 -2.355,4.324 -5.262,4.324 -2.907,0 -5.262,-1.936 -5.262,-4.324 z"
   id="path1009" />

			<path
   fill="#333333"
   d="m 789.098,834.526 c 2.443,0 4.49,1.367 5.082,3.219 0.113,-0.352 0.18,-0.719 0.18,-1.102 0,-2.385 -2.355,-4.318 -5.262,-4.318 -2.907,0 -5.262,1.934 -5.262,4.318 0,0.383 0.065,0.75 0.178,1.102 0.594,-1.851 2.645,-3.219 5.084,-3.219 z"
   id="path1011" />

		</g>

		<rect
   x="804.90302"
   y="804.198"
   fill="#1a1a1a"
   width="49.830002"
   height="6.0289998"
   id="rect1015" />

		<rect
   x="42.889"
   y="901.58698"
   fill="#333333"
   width="177.70799"
   height="56.959"
   id="rect1017" />

		<rect
   x="42.889"
   y="901.58698"
   fill="#454545"
   width="177.70799"
   height="6.2010002"
   id="rect1019" />

		<rect
   x="63.819"
   y="914.32098"
   fill="#666666"
   width="31.197001"
   height="25.033001"
   id="rect1021" />

		<rect
   x="63.819"
   y="939.354"
   fill="#454545"
   width="31.197001"
   height="6.4590001"
   id="rect1023" />

		<rect
   x="116.144"
   y="914.32098"
   fill="#666666"
   width="31.198999"
   height="25.033001"
   id="rect1025" />

		<rect
   x="116.144"
   y="939.354"
   fill="#454545"
   width="31.198999"
   height="6.4590001"
   id="rect1027" />

		<rect
   x="168.47"
   y="914.32098"
   fill="#666666"
   width="31.198999"
   height="25.033001"
   id="rect1029" />

		<rect
   x="168.47"
   y="939.354"
   fill="#454545"
   width="31.198999"
   height="6.4590001"
   id="rect1031" />

		<rect
   x="820.93597"
   y="901.58698"
   fill="#333333"
   width="177.709"
   height="56.959"
   id="rect1033" />

		<rect
   x="820.93597"
   y="901.58698"
   fill="#454545"
   width="177.709"
   height="6.2010002"
   id="rect1035" />

		<rect
   x="879.79303"
   y="657.87201"
   fill="#333333"
   width="118.852"
   height="203.754"
   id="rect1037" />

		<rect
   x="879.79303"
   y="657.87201"
   width="118.852"
   height="6.2010002"
   id="rect1039" />

		<rect
   x="834.15302"
   y="914.32098"
   fill="#666666"
   width="31.198999"
   height="25.033001"
   id="rect1041" />

		<rect
   x="834.15302"
   y="939.354"
   fill="#454545"
   width="31.198999"
   height="6.4590001"
   id="rect1043" />

		<rect
   x="874.02399"
   y="914.32098"
   fill="#666666"
   width="31.198999"
   height="25.033001"
   id="rect1045" />

		<rect
   x="874.02399"
   y="939.354"
   fill="#454545"
   width="31.198999"
   height="6.4590001"
   id="rect1047" />

		<rect
   x="913.89301"
   y="914.32098"
   fill="#666666"
   width="31.198999"
   height="25.033001"
   id="rect1049" />

		<rect
   x="913.89301"
   y="939.354"
   fill="#454545"
   width="31.198999"
   height="6.4590001"
   id="rect1051" />

		<rect
   x="953.76398"
   y="914.32098"
   fill="#666666"
   width="31.198999"
   height="25.033001"
   id="rect1053" />

		<rect
   x="953.76398"
   y="939.354"
   fill="#454545"
   width="31.198999"
   height="6.4590001"
   id="rect1055" />

		<rect
   x="72.266998"
   y="856.69397"
   fill="#3d3d3d"
   width="87.753998"
   height="22.045"
   id="rect1057" />

		<path
   fill="#333333"
   d="M 122.448,808.937 H 72.267 v 47.758 h 87.754 c 0,-0.001 -22.739,-5.118 -37.573,-47.758 z"
   id="path1059" />

		<rect
   x="904.41101"
   y="676.79303"
   fill="#1a1a1a"
   width="19.365"
   height="168.819"
   id="rect1061" />

		<rect
   x="893.27399"
   y="781.53003"
   fill="#4d4d4d"
   width="41.643002"
   height="17.658001"
   id="rect1063" />

		<rect
   x="893.27399"
   y="799.18799"
   fill="#666666"
   width="41.643002"
   height="4.5570002"
   id="rect1065" />

		<rect
   x="954.65698"
   y="676.79303"
   fill="#1a1a1a"
   width="19.367001"
   height="168.819"
   id="rect1067" />

		<rect
   x="943.52197"
   y="721.28198"
   fill="#4d4d4d"
   width="41.640999"
   height="17.658001"
   id="rect1069" />

		<rect
   x="943.52197"
   y="738.94"
   fill="#666666"
   width="41.640999"
   height="4.5549998"
   id="rect1071" />

		<rect
   x="904.41101"
   y="676.79303"
   width="19.365"
   height="6.0100002"
   id="rect1073" />

		<rect
   x="954.66101"
   y="676.79303"
   width="19.365"
   height="6.0100002"
   id="rect1075" />

		<g
   id="g1101">
			<rect
   x="42.889"
   y="457.091"
   fill="#333333"
   width="65.059998"
   height="100.693"
   id="rect1077" />

			<rect
   x="42.889"
   y="457.091"
   fill="#454545"
   width="65.059998"
   height="6.2010002"
   id="rect1079" />

			<rect
   x="42.889"
   y="476.52301"
   fill="#454545"
   width="65.059998"
   height="3.1010001"
   id="rect1081" />

			<rect
   x="42.889"
   y="468.16901"
   fill="#333333"
   width="65.059998"
   height="8.3540001"
   id="rect1083" />

			<rect
   x="42.889"
   y="493.98999"
   fill="#454545"
   width="65.059998"
   height="3.1010001"
   id="rect1085" />

			<rect
   x="42.889"
   y="485.63599"
   fill="#333333"
   width="65.059998"
   height="8.3540001"
   id="rect1087" />

			<rect
   x="42.889"
   y="511.45801"
   fill="#454545"
   width="65.059998"
   height="3.0999999"
   id="rect1089" />

			<rect
   x="42.889"
   y="503.104"
   fill="#333333"
   width="65.059998"
   height="8.3540001"
   id="rect1091" />

			<rect
   x="42.889"
   y="528.92401"
   fill="#454545"
   width="65.059998"
   height="3.1010001"
   id="rect1093" />

			<rect
   x="42.889"
   y="520.57001"
   fill="#333333"
   width="65.059998"
   height="8.3540001"
   id="rect1095" />

			<rect
   x="42.889"
   y="546.39203"
   fill="#454545"
   width="65.059998"
   height="3.0999999"
   id="rect1097" />

			<rect
   x="42.889"
   y="538.03802"
   fill="#333333"
   width="65.059998"
   height="8.3540001"
   id="rect1099" />

		</g>

		<rect
   x="779.79901"
   y="874.62799"
   fill="#1a1a1a"
   width="18.518"
   height="11.818"
   id="rect1103" />

		<rect
   x="961.03601"
   y="538.52899"
   fill="#333333"
   width="29.365999"
   height="4.8099999"
   id="rect1105" />

		<rect
   x="961.03601"
   y="619.79102"
   fill="#333333"
   width="29.365999"
   height="4.809"
   id="rect1107" />

		<polygon
   fill="#333333"
   points="923.674,920.12 935.309,926.837 923.674,933.556 "
   id="polygon1109" />

		<polygon
   fill="#333333"
   points="966.622,933.556 978.26,926.837 966.622,920.12 966.622,923.671 960.469,920.12 960.469,933.556 966.622,930.001 "
   id="polygon1111" />

		<polygon
   fill="#333333"
   points="851.252,920.12 839.616,926.837 851.252,933.556 851.252,930.001 857.409,933.556 857.409,920.12 851.252,923.671 "
   id="polygon1113" />

		<rect
   x="883.80499"
   y="920.12"
   fill="#333333"
   width="11.633"
   height="13.436"
   id="rect1115" />

		<rect
   x="72.266998"
   y="920.95398"
   fill="#333333"
   width="14.302"
   height="11.768"
   id="rect1117" />

		<rect
   x="124.592"
   y="920.95398"
   fill="#333333"
   width="14.302"
   height="11.768"
   id="rect1119" />

		<rect
   x="176.91701"
   y="920.95398"
   fill="#333333"
   width="14.303"
   height="11.768"
   id="rect1121" />

		<ellipse
   fill="#454545"
   cx="808.40503"
   cy="466.44901"
   rx="18.239"
   ry="14.977"
   id="ellipse1123" />

		<ellipse
   fill="#454545"
   cx="879.79303"
   cy="466.44901"
   rx="18.238001"
   ry="14.977"
   id="ellipse1125" />

		<rect
   x="824.66803"
   y="1025.1219"
   fill="#4d4d4d"
   width="159.483"
   height="24.302999"
   id="rect1127" />

		<g
   id="g1133">
			<circle
   fill="#454545"
   cx="191.22"
   cy="1038.288"
   r="11.632"
   id="circle1129" />

			<path
   fill="#333333"
   d="m 191.22,1043.938 c -5.389,0 -9.908,-3.67 -11.23,-8.641 -0.254,0.955 -0.401,1.955 -0.401,2.99 0,6.422 5.208,11.631 11.632,11.631 6.424,0 11.632,-5.209 11.632,-11.631 0,-1.035 -0.147,-2.035 -0.401,-2.99 -1.324,4.972 -5.844,8.641 -11.232,8.641 z"
   id="path1131" />

		</g>

		<g
   id="g1139">
			<circle
   fill="#454545"
   cx="228.235"
   cy="1038.288"
   r="11.631"
   id="circle1135" />

			<path
   fill="#333333"
   d="m 228.235,1043.938 c -5.389,0 -9.908,-3.67 -11.23,-8.641 -0.254,0.955 -0.401,1.955 -0.401,2.99 0,6.422 5.207,11.631 11.632,11.631 6.424,0 11.631,-5.209 11.631,-11.631 0,-1.035 -0.147,-2.035 -0.401,-2.99 -1.322,4.972 -5.842,8.641 -11.231,8.641 z"
   id="path1137" />

		</g>

		<g
   id="g1145">
			<circle
   fill="#454545"
   cx="265.25"
   cy="1038.288"
   r="11.632"
   id="circle1141" />

			<path
   fill="#333333"
   d="m 265.25,1043.938 c -5.389,0 -9.908,-3.67 -11.229,-8.641 -0.254,0.955 -0.402,1.955 -0.402,2.99 0,6.422 5.208,11.631 11.632,11.631 6.425,0 11.632,-5.209 11.632,-11.631 0,-1.035 -0.147,-2.035 -0.401,-2.99 -1.323,4.972 -5.843,8.641 -11.232,8.641 z"
   id="path1143" />

		</g>

		<rect
   x="472.263"
   y="972.43298"
   display="none"
   fill="#454545"
   width="126.49"
   height="8.2659998"
   id="rect1147" />

		<rect
   x="65.917999"
   y="1106.0031"
   fill="#4d4d4d"
   width="113.099"
   height="21.898001"
   id="rect1149" />

		<rect
   x="890.64099"
   y="1106.0031"
   fill="#4d4d4d"
   width="113.102"
   height="21.898001"
   id="rect1151" />

		<rect
   x="65.917999"
   y="1106.0031"
   fill="#666666"
   width="113.67"
   height="5.9510002"
   id="rect1153" />

		<rect
   x="890.354"
   y="1106.0031"
   fill="#666666"
   width="113.67"
   height="5.9510002"
   id="rect1155" />

	</g>

</g>
  </g>
</svg>
